<?xml version="1.0" standalone="no"?>
<!DOCTYPE svg PUBLIC "-//W3C//DTD SVG 1.1//EN" "http://www.w3.org/Graphics/SVG/1.1/DTD/svg11.dtd" >
<!--
2021-12-5: Created with FontForge (http://fontforge.org)
-->
<svg xmlns="http://www.w3.org/2000/svg" xmlns:xlink="http://www.w3.org/1999/xlink" version="1.1">
<metadata>
Created by FontForge 20200314 at Sun Dec  5 21:23:06 2021
 By Nandhakumar Ramanathan

</metadata>
<defs>
<font id="nunify-icons" horiz-adv-x="512" >
  <font-face 
    font-family="nunify-icons"
    font-weight="400"
    font-stretch="normal"
    units-per-em="512"
    panose-1="2 0 5 3 0 0 0 0 0 0"
    ascent="448"
    descent="-64"
    bbox="-7.75684 -79.8867 519.305 453.12"
    underline-thickness="25.6"
    underline-position="-51.2"
    unicode-range="U+0020-F238"
  />
    <missing-glyph />
    <glyph glyph-name="space" unicode=" " horiz-adv-x="200" 
 />
    <glyph glyph-name="admin" unicode="&#xf100;" 
d="M257.014 121.232l0.294922 -0.0722656l61.7363 -17.1689c1.85156 -0.514648 3.24023 -2.04004 3.58984 -3.91797l0.0361328 -0.226562c0.358398 -2.5752 8.52734 -63.4111 -12.4248 -93.6748c-20.9268 -30.2285 -51.7998 -37.9746 -53.1035 -38.29
c-0.387695 -0.0927734 -0.783203 -0.139648 -1.17871 -0.139648c-0.396484 0 -0.791016 0.0458984 -1.17871 0.139648l-0.545898 0.140625c-4.42676 1.18555 -32.8867 9.73438 -52.5586 38.1494c-20.9521 30.2637 -12.7832 91.0996 -12.4248 93.6748
c0.264648 1.90527 1.59277 3.4834 3.40625 4.07812l0.220703 0.0664062l61.7354 17.1689c0.783203 0.217773 1.60449 0.242188 2.39551 0.0722656zM256 206.336c77.1846 0 140.123 -50.8311 143.239 -114.515l0.0761719 -1.93359
c0.0292969 -1.00293 0.0449219 -98.5918 0.0449219 -98.5918h-30.7266l-0.0253906 97.6777c-1.39258 46.8008 -50.3311 86.6426 -112.608 86.6426c-62.1172 0 -110.996 -39.6504 -112.599 -86.3203l-0.0332031 -98h-30.7285l0.0595703 99.0537
c2.20996 64.3701 65.5225 115.986 143.301 115.986zM256 44.5439l-36.041 -0.000976562c1.51758 -9.19824 3.91406 -16.457 6.97949 -20.8848c5.9502 -8.59473 13.5361 -15.2324 22.0801 -20.1572c2.10156 -1.21094 4.17383 -2.2666 6.17871 -3.17188l0.765625 -0.337891
l0.0361328 0.015625zM293.603 79.1816l-37.6035 10.457l0.000976562 -45.0947l35.9668 0.000976562l0.0957031 0.581055c0.912109 5.7168 1.4873 12.1543 1.67871 19.1123c0.130859 4.74219 0.0849609 9.50098 -0.104492 14.1699zM256 441.856
c59.3818 0 107.52 -48.1387 107.52 -107.521s-48.1377 -107.52 -107.52 -107.52s-107.52 48.1377 -107.52 107.52s48.1377 107.521 107.52 107.521zM256 411.136c-42.415 0 -76.7998 -34.3838 -76.7998 -76.7998c0 -42.415 34.3848 -76.7998 76.7998 -76.7998
s76.7998 34.3848 76.7998 76.7998c0 42.416 -34.3848 76.7998 -76.7998 76.7998z" />
    <glyph glyph-name="aidaio" unicode="&#xf101;" 
d="M139.182 118.059c24.3252 -39.6562 67.5166 -66.0293 116.744 -66.0293s92.4189 26.373 116.744 66.0293v0h10.9072c-25.3398 -45.1973 -73.0527 -75.6543 -127.738 -75.6543c-54.6846 0 -102.398 30.457 -127.738 75.6543v0h11.0811zM135.062 223.578v-93.9639h-15.3467
v93.9639h15.3467zM56.2783 234.019c28.2539 0 51.1582 -23.3711 51.1582 -52.2021v-52.2021h-15.3477v14.9229c-9.22754 -9.23145 -21.8682 -14.9229 -35.8105 -14.9229c-28.2539 0 -51.1582 23.3721 -51.1582 52.2021c0 28.8311 22.9043 52.2021 51.1582 52.2021z
M249.656 296.662v-167.048h-15.3477l0.00195312 14.9238c-9.22852 -9.23145 -21.8691 -14.9238 -35.8125 -14.9238c-28.2539 0 -51.1582 23.3721 -51.1582 52.2021c0 28.8311 22.9043 52.2021 51.1582 52.2021c13.9434 0 26.585 -5.69238 35.8125 -14.9238
l-0.00195312 77.5674h15.3477zM313.502 234.019c28.2539 0 51.1582 -23.3711 51.1582 -52.2021v-52.2021h-15.5518v14.7188c-9.20996 -9.11035 -21.7666 -14.7188 -35.6064 -14.7188c-28.2539 0 -51.1582 23.3721 -51.1582 52.2021
c0 28.8311 22.9043 52.2021 51.1582 52.2021zM455.722 234.019c28.2539 0 51.1582 -23.3711 51.1582 -52.2021c0 -28.8301 -22.9043 -52.2021 -51.1582 -52.2021s-51.1582 23.3721 -51.1582 52.2021c0 28.8311 22.9043 52.2021 51.1582 52.2021zM392.285 223.578v-93.9639
h-15.3467v93.9639h15.3467zM56.2783 218.358c-19.7773 0 -35.8105 -16.3604 -35.8105 -36.542c0 -20.1807 16.0332 -36.541 35.8105 -36.541s35.8105 16.3604 35.8105 36.541c0 20.1816 -16.0332 36.542 -35.8105 36.542zM198.498 218.358
c-19.7773 0 -35.8105 -16.3604 -35.8105 -36.542c0 -20.1807 16.0332 -36.541 35.8105 -36.541c19.7783 0 35.8105 16.3604 35.8105 36.541c0 20.1816 -16.0322 36.542 -35.8105 36.542zM455.722 218.358c-19.7773 0 -35.8105 -16.3604 -35.8105 -36.542
c0 -20.1807 16.0332 -36.541 35.8105 -36.541s35.8105 16.3604 35.8105 36.541c0 20.1816 -16.0332 36.542 -35.8105 36.542zM313.604 217.94c-19.6084 0 -35.5039 -16.2197 -35.5039 -36.2285c0 -20.0078 15.8955 -36.2275 35.5039 -36.2275
c19.6074 0 35.5039 16.2197 35.5039 36.2275c0 20.0088 -15.8965 36.2285 -35.5039 36.2285zM127.49 281.21c14.127 0 25.5791 -11.6855 25.5791 -26.1016c0 -14.415 -11.4521 -26.1006 -25.5791 -26.1006s-25.5791 11.6855 -25.5791 26.1006
c0 14.416 11.4521 26.1016 25.5791 26.1016zM384.51 281.21c14.127 0 25.5791 -11.6855 25.5791 -26.1016c0 -14.415 -11.4521 -26.1006 -25.5791 -26.1006s-25.5791 11.6855 -25.5791 26.1006c0 14.416 11.4521 26.1016 25.5791 26.1016zM127.593 268.055
c-7.06348 0 -12.7891 -5.84277 -12.7891 -13.0508c0 -7.20703 5.72559 -13.0498 12.7891 -13.0498s12.79 5.84277 12.79 13.0498c0 7.20801 -5.72656 13.0508 -12.79 13.0508zM384.611 268.055c-7.06348 0 -12.7891 -5.84277 -12.7891 -13.0508
c0 -7.20703 5.72559 -13.0498 12.7891 -13.0498s12.79 5.84277 12.79 13.0498c0 7.20801 -5.72656 13.0508 -12.79 13.0508zM255.839 342.528c45.6514 0 86.4453 -21.2266 113.419 -54.5342c-2.87695 -1.37695 -5.5459 -3.13184 -7.94336 -5.20312
c-25.2471 30.6396 -63.0889 50.1113 -105.389 50.1113c-42.2744 0 -80.0967 -19.4482 -105.343 -50.0557c-2.42676 2.10742 -5.13281 3.88965 -8.05273 5.2832c26.9746 33.2295 67.7188 54.3984 113.309 54.3984z" />
    <glyph glyph-name="align-bottom" unicode="&#xf1eb;" 
d="M422.4 64c18.3799 0 33.2793 -11.4619 33.2793 -25.5996c0 -14.1387 -14.8994 -25.6006 -33.2793 -25.6006h-332.801c-18.3799 0 -33.2793 11.4619 -33.2793 25.6006c0 14.1377 14.8994 25.5996 33.2793 25.5996h332.801zM422.4 145.92
c18.3799 0 33.2793 -11.4619 33.2793 -25.5996c0 -14.1387 -14.8994 -25.6006 -33.2793 -25.6006h-332.801c-18.3799 0 -33.2793 11.4619 -33.2793 25.6006c0 14.1377 14.8994 25.5996 33.2793 25.5996h332.801zM307.566 252.928
c5.65527 0 10.2402 -4.58398 10.2402 -10.2393c0 -2.71582 -1.0791 -5.32129 -2.99902 -7.24121l-52.0791 -52.0781c-3.99902 -3.99902 -10.4824 -3.99902 -14.4814 0l-52.0781 52.0781c-3.99902 3.99902 -3.99902 10.4824 0 14.4814
c1.91992 1.9209 4.52441 2.99902 7.24023 2.99902h104.157z" />
    <glyph glyph-name="align-center" unicode="&#xf1ec;" 
d="M387.072 38.4004c14.1387 0 25.5996 -11.4619 25.5996 -25.6006s-11.4609 -25.5996 -25.5996 -25.5996h-256c-14.1387 0 -25.6006 11.4609 -25.6006 25.5996s11.4619 25.6006 25.6006 25.6006h256zM484.352 158.208c14.1387 0 25.6006 -11.4619 25.6006 -25.5996
c0 -14.1387 -11.4619 -25.6006 -25.6006 -25.6006h-450.56c-14.1387 0 -25.5996 11.4619 -25.5996 25.6006c0 14.1377 11.4609 25.5996 25.5996 25.5996h450.56zM387.072 276.992c14.1387 0 25.5996 -11.4619 25.5996 -25.6006
c0 -14.1377 -11.4609 -25.5996 -25.5996 -25.5996h-256c-14.1387 0 -25.6006 11.4619 -25.6006 25.5996c0 14.1387 11.4619 25.6006 25.6006 25.6006h256zM484.352 396.8c14.1387 0 25.6006 -11.4609 25.6006 -25.5996s-11.4619 -25.6006 -25.6006 -25.6006h-450.56
c-14.1387 0 -25.5996 11.4619 -25.5996 25.6006s11.4609 25.5996 25.5996 25.5996h450.56z" />
    <glyph glyph-name="align-left" unicode="&#xf1ed;" 
d="M289.792 38.4004c14.1387 0 25.5996 -11.4619 25.5996 -25.6006s-11.4609 -25.5996 -25.5996 -25.5996h-256c-14.1387 0 -25.5996 11.4609 -25.5996 25.5996s11.4609 25.6006 25.5996 25.6006h256zM484.352 158.208c14.1387 0 25.6006 -11.4619 25.6006 -25.5996
c0 -14.1387 -11.4619 -25.6006 -25.6006 -25.6006h-450.56c-14.1387 0 -25.5996 11.4619 -25.5996 25.6006c0 14.1377 11.4609 25.5996 25.5996 25.5996h450.56zM289.792 276.992c14.1387 0 25.5996 -11.4619 25.5996 -25.6006
c0 -14.1377 -11.4609 -25.5996 -25.5996 -25.5996h-256c-14.1387 0 -25.5996 11.4619 -25.5996 25.5996c0 14.1387 11.4609 25.6006 25.5996 25.6006h256zM484.352 396.8c14.1387 0 25.6006 -11.4609 25.6006 -25.5996s-11.4619 -25.6006 -25.6006 -25.6006h-450.56
c-14.1387 0 -25.5996 11.4619 -25.5996 25.6006s11.4609 25.5996 25.5996 25.5996h450.56z" />
    <glyph glyph-name="align-middle" unicode="&#xf1ee;" 
d="M249.271 87.9912c3.92578 3.92676 10.2471 3.99805 14.2607 0.213867l0.220703 -0.213867l52.0781 -52.0781c1.9209 -1.9209 2.99902 -4.52539 2.99902 -7.24121c0 -5.55957 -4.42969 -10.084 -9.95312 -10.2363l-0.286133 -0.00390625h-104.157
c-2.71582 0 -5.32031 1.0791 -7.24121 3c-3.92578 3.92578 -3.99707 10.2471 -0.213867 14.2607l0.213867 0.220703zM422.4 176.64c18.3799 0 33.2793 -11.4609 33.2793 -25.5996s-14.8994 -25.5996 -33.2793 -25.5996h-332.801
c-18.3799 0 -33.2793 11.4609 -33.2793 25.5996s14.8994 25.5996 33.2793 25.5996h332.801zM422.4 258.56c18.3799 0 33.2793 -11.4609 33.2793 -25.5996s-14.8994 -25.5996 -33.2793 -25.5996h-332.801c-18.3799 0 -33.2793 11.4609 -33.2793 25.5996
s14.8994 25.5996 33.2793 25.5996h332.801zM308.591 365.568c5.65527 0 10.2393 -4.58496 10.2393 -10.2402c0 -2.71582 -1.07812 -5.32031 -2.99902 -7.24121l-52.0781 -52.0781c-3.99902 -3.99902 -10.4824 -3.99902 -14.4814 0l-52.0791 52.0781
c-3.99902 3.99902 -3.99902 10.4824 0 14.4814c1.9209 1.9209 4.52539 3 7.24121 3h104.157z" />
    <glyph glyph-name="align-right" unicode="&#xf1ef;" 
d="M484.352 38.4004c14.1387 0 25.6006 -11.4619 25.6006 -25.6006s-11.4619 -25.5996 -25.6006 -25.5996h-256c-14.1377 0 -25.5996 11.4609 -25.5996 25.5996s11.4619 25.6006 25.5996 25.6006h256zM484.352 158.208c14.1387 0 25.6006 -11.4619 25.6006 -25.5996
c0 -14.1387 -11.4619 -25.6006 -25.6006 -25.6006h-450.56c-14.1387 0 -25.5996 11.4619 -25.5996 25.6006c0 14.1377 11.4609 25.5996 25.5996 25.5996h450.56zM484.352 276.992c14.1387 0 25.6006 -11.4619 25.6006 -25.6006
c0 -14.1377 -11.4619 -25.5996 -25.6006 -25.5996h-256c-14.1377 0 -25.5996 11.4619 -25.5996 25.5996c0 14.1387 11.4619 25.6006 25.5996 25.6006h256zM484.352 396.8c14.1387 0 25.6006 -11.4609 25.6006 -25.5996s-11.4619 -25.6006 -25.6006 -25.6006h-450.56
c-14.1387 0 -25.5996 11.4619 -25.5996 25.6006s11.4609 25.5996 25.5996 25.5996h450.56z" />
    <glyph glyph-name="align-top" unicode="&#xf1f0;" 
d="M249.271 200.631c3.92578 3.92676 10.2471 3.99805 14.2607 0.214844l0.220703 -0.214844l52.0781 -52.0781c1.9209 -1.91992 2.99902 -4.52539 2.99902 -7.24121c0 -5.55859 -4.42969 -10.084 -9.95312 -10.2354l-0.286133 -0.00390625h-104.157
c-2.71582 0 -5.32031 1.07812 -7.24121 2.99902c-3.92578 3.92578 -3.99707 10.248 -0.213867 14.2607l0.213867 0.220703zM422.4 289.28c18.3799 0 33.2793 -11.4619 33.2793 -25.6006c0 -14.1377 -14.8994 -25.5996 -33.2793 -25.5996h-332.801
c-18.3799 0 -33.2793 11.4619 -33.2793 25.5996c0 14.1387 14.8994 25.6006 33.2793 25.6006h332.801zM422.4 371.2c18.3799 0 33.2793 -11.4619 33.2793 -25.6006c0 -14.1377 -14.8994 -25.5996 -33.2793 -25.5996h-332.801c-18.3799 0 -33.2793 11.4619 -33.2793 25.5996
c0 14.1387 14.8994 25.6006 33.2793 25.6006h332.801z" />
    <glyph glyph-name="analytics" unicode="&#xf102;" 
d="M481.276 -38.4004c5.56152 0 10.0879 -4.42871 10.2393 -9.95312l0.00390625 -0.286133c0 -5.65527 -4.5791 -10.2402 -10.2432 -10.2402h-440.313c-5.65723 0 -10.2432 4.58301 -10.2432 10.2402c0 5.65527 4.58008 10.2393 10.2432 10.2393h440.313zM87.04 125.44
c25.4492 0 46.0801 -20.6221 46.0801 -46.0889v-51.1826c0 -25.4541 -20.625 -46.0889 -46.0801 -46.0889c-25.4492 0 -46.0801 20.6221 -46.0801 46.0889v51.1826c0 25.4541 20.625 46.0889 46.0801 46.0889zM199.68 176.64c25.4492 0 46.0801 -20.6328 46.0801 -46.0732
v-102.412c0 -25.4463 -20.625 -46.0742 -46.0801 -46.0742c-25.4492 0 -46.0801 20.6328 -46.0801 46.0742v102.412c0 25.4453 20.626 46.0732 46.0801 46.0732zM312.32 227.84c25.4492 0 46.0801 -20.6221 46.0801 -46.0889v-153.582
c0 -25.4541 -20.626 -46.0889 -46.0801 -46.0889c-25.4492 0 -46.0801 20.6221 -46.0801 46.0889v153.582c0 25.4541 20.625 46.0889 46.0801 46.0889zM424.96 330.24c25.4492 0 46.0801 -20.6396 46.0801 -46.0762v-256.009c0 -25.4463 -20.625 -46.0752 -46.0801 -46.0752
c-25.4492 0 -46.0801 20.6396 -46.0801 46.0752v256.009c0 25.4473 20.625 46.0762 46.0801 46.0762zM87.04 94.7197c-8.48535 0 -15.3604 -6.87695 -15.3604 -15.3682v-51.1826c0 -8.49609 6.87305 -15.3691 15.3604 -15.3691c8.48438 0 15.3604 6.87695 15.3604 15.3691
v51.1826c0 8.49609 -6.87305 15.3682 -15.3604 15.3682zM199.68 145.92c-8.48633 0 -15.3594 -6.87207 -15.3594 -15.3535v-102.412c0 -8.47656 6.87793 -15.3545 15.3594 -15.3545c8.4873 0 15.3604 6.87305 15.3604 15.3545v102.412
c0 8.47559 -6.87793 15.3535 -15.3604 15.3535zM312.32 197.12c-8.48535 0 -15.3604 -6.87695 -15.3604 -15.3691v-153.582c0 -8.49609 6.87305 -15.3691 15.3604 -15.3691c8.48438 0 15.3594 6.87695 15.3594 15.3691v153.582c0 8.49609 -6.87207 15.3691 -15.3594 15.3691
zM424.96 299.52c-8.48633 0 -15.3604 -6.87305 -15.3604 -15.3555v-256.009c0 -8.47363 6.88184 -15.3555 15.3604 -15.3555c8.4873 0 15.3604 6.87305 15.3604 15.3555v256.009c0 8.47461 -6.88184 15.3555 -15.3604 15.3555zM452.492 442.88
c5.55469 0 10.0752 -4.42871 10.2266 -9.95312l0.00390625 -0.287109c0 -0.755859 -0.0820312 -1.49316 -0.237305 -2.20312c-0.00683594 -0.426758 -0.0400391 -0.857422 -0.100586 -1.28906l0.236328 -0.414062l-0.15625 0.265625
c-0.0273438 0.0449219 -0.0556641 0.0908203 -0.0839844 0.135742c-0.0556641 -0.402344 -0.138672 -0.804688 -0.246094 -1.20605l-15.9062 -59.3652c-1.4375 -5.36523 -6.88672 -8.58496 -12.2617 -7.30176l-0.277344 0.0703125
c-5.46289 1.46289 -8.70605 7.07422 -7.24316 12.5312l8.78223 32.7783l-386.505 -234.825c-13.9072 -8.48828 -24.1475 9.94336 -10.2393 17.7363l383.248 232.848h-30.7002c-5.55371 0 -10.0742 4.42871 -10.2256 9.95312l-0.00390625 0.286133
c0 5.65527 4.58008 10.2402 10.2295 10.2402h61.46z" />
    <glyph glyph-name="angle-down" unicode="&#xf103;" 
d="M33.9609 311.734c11.0371 10.9111 28.8623 11.0195 40.0342 0.327148l0.336914 -0.327148l181.668 -179.602l181.668 179.602c11.0371 10.9111 28.8623 11.0195 40.0342 0.327148l0.336914 -0.327148c11.0361 -10.9111 11.1465 -28.5342 0.331055 -39.5791
l-0.331055 -0.333008l-201.854 -199.557c-11.0371 -10.9111 -28.8623 -11.0195 -40.0342 -0.327148l-0.336914 0.327148l-201.854 199.557c-11.1484 11.0215 -11.1484 28.8906 0 39.9121z" />
    <glyph glyph-name="angle-left" unicode="&#xf104;" 
d="M375.734 414.039c10.9111 -11.0371 11.0195 -28.8623 0.327148 -40.0342l-0.327148 -0.336914l-179.602 -181.668l179.602 -181.668c10.9111 -11.0371 11.0195 -28.8623 0.327148 -40.0342l-0.327148 -0.336914c-10.9111 -11.0361 -28.5342 -11.1465 -39.5791 -0.331055
l-0.333008 0.331055l-199.557 201.854c-10.9111 11.0371 -11.0195 28.8623 -0.327148 40.0342l0.327148 0.336914l199.557 201.854c11.0215 11.1484 28.8906 11.1484 39.9121 0z" />
    <glyph glyph-name="angle-right" unicode="&#xf105;" 
d="M136.266 414.039c11.0215 11.1484 28.8906 11.1484 39.9121 0l199.557 -201.854l0.327148 -0.336914c10.6924 -11.1719 10.584 -28.9971 -0.327148 -40.0342l-199.557 -201.854l-0.333008 -0.331055c-11.0449 -10.8154 -28.668 -10.7051 -39.5791 0.331055
l-0.327148 0.336914c-10.6924 11.1719 -10.584 28.9971 0.327148 40.0342l179.602 181.668l-179.602 181.668l-0.327148 0.336914c-10.6924 11.1719 -10.584 28.9971 0.327148 40.0342z" />
    <glyph glyph-name="angle-up" unicode="&#xf106;" 
d="M478.039 72.2656c-11.0371 -10.9111 -28.8623 -11.0195 -40.0342 -0.327148l-0.336914 0.327148l-181.668 179.602l-181.668 -179.602c-11.0371 -10.9111 -28.8623 -11.0195 -40.0342 -0.327148l-0.336914 0.327148c-11.0361 10.9111 -11.1465 28.5342 -0.331055 39.5791
l0.331055 0.333008l201.854 199.557c11.0371 10.9111 28.8623 11.0195 40.0342 0.327148l0.336914 -0.327148l201.854 -199.557c11.1484 -11.0215 11.1484 -28.8906 0 -39.9121z" />
    <glyph glyph-name="arrow-down" unicode="&#xf107;" 
d="M385.822 135.387c11.9961 -11.9971 11.9961 -31.4482 0 -43.4453l-108.612 -108.611l-0.361328 -0.356445c-12.0234 -11.6396 -31.2061 -11.5205 -43.083 0.356445l-108.611 108.611l-0.356445 0.362305c-11.6396 12.0234 -11.5205 31.2061 0.356445 43.083
l0.362305 0.355469c12.0225 11.6396 31.2051 11.5215 43.082 -0.355469l56.2373 -56.2363v299.662l0.00390625 0.507812c0.271484 16.7324 13.9189 30.2119 30.7158 30.2119c16.9658 0 30.7197 -13.7539 30.7197 -30.7197v-299.527l56.1016 56.1016l0.362305 0.355469
c12.0234 11.6396 31.2061 11.5215 43.083 -0.355469z" />
    <glyph glyph-name="arrow-left" unicode="&#xf108;" 
d="M198.942 322.267c11.877 -11.877 11.9951 -31.0596 0.355469 -43.083l-0.355469 -0.362305l-56.1016 -56.1016h299.527c16.9658 0 30.7197 -13.7539 30.7197 -30.7197c0 -16.7969 -13.4805 -30.4443 -30.2119 -30.7158l-0.507812 -0.00390625h-299.662l56.2363 -56.2373
c11.877 -11.877 11.9951 -31.0596 0.355469 -43.082l-0.355469 -0.362305c-11.877 -11.877 -31.0596 -11.9961 -43.083 -0.356445l-0.362305 0.356445l-108.611 108.611c-11.877 11.877 -11.9961 31.0596 -0.356445 43.083l0.356445 0.361328l108.611 108.612
c11.9971 11.9971 31.4482 11.9971 43.4453 0z" />
    <glyph glyph-name="arrow-right" unicode="&#xf109;" 
d="M312.034 322.267c11.9971 11.9971 31.4473 11.9971 43.4443 0l108.611 -108.612l0.356445 -0.361328c11.6396 -12.0234 11.5205 -31.2061 -0.356445 -43.083l-108.611 -108.611l-0.362305 -0.356445c-12.0225 -11.6396 -31.2051 -11.5205 -43.082 0.356445
l-0.356445 0.362305c-11.6396 12.0225 -11.5205 31.2051 0.356445 43.082l56.2363 56.2373h-299.662l-0.508789 0.00390625c-16.7314 0.271484 -30.2119 13.9189 -30.2119 30.7158c0 16.9658 13.7539 30.7197 30.7207 30.7197h299.526l-56.1006 56.1016l-0.356445 0.362305
c-11.6396 12.0234 -11.5205 31.2061 0.356445 43.083z" />
    <glyph glyph-name="arrow-up" unicode="&#xf10a;" 
d="M125.154 248.479c-11.9971 11.9971 -11.9971 31.4473 0 43.4443l108.611 108.612l0.362305 0.355469c12.0225 11.6396 31.2051 11.5215 43.082 -0.355469l108.612 -108.612l0.356445 -0.362305c11.6387 -12.0225 11.5205 -31.2051 -0.356445 -43.082l-0.362305 -0.356445
c-12.0234 -11.6396 -31.2061 -11.5205 -43.083 0.356445l-56.2363 56.2363v-299.662l-0.00390625 -0.508789c-0.271484 -16.7314 -13.9199 -30.2119 -30.7168 -30.2119c-16.9658 0 -30.7197 13.7539 -30.7197 30.7207v299.526l-56.1016 -56.1006l-0.362305 -0.356445
c-12.0225 -11.6396 -31.2051 -11.5205 -43.082 0.356445z" />
    <glyph glyph-name="attachment" unicode="&#xf10b;" 
d="M261.12 -59.3916h-10.2402l-1.95605 0.015625c-64.417 1.04395 -105.052 53.5889 -105.052 118.256v204.906l0.00292969 0.323242c0.172852 8.61621 7.21094 15.5488 15.8691 15.5488c8.76562 0 15.8721 -7.10645 15.8721 -15.8721v-204.906l0.0117188 -1.43066
c0.763672 -47.1279 27.9414 -85.0977 75.252 -85.0977h10.2402l1.43066 0.0117188c47.1279 0.764648 74.8574 39.2061 74.8574 86.5166v293.376l-0.0078125 0.96582c-0.515625 31.79 -26.4473 57.4023 -58.3604 57.4023c-32.2354 0 -48.1279 -26.1318 -48.1279 -58.3682
v-272.404l0.00390625 -0.500977c0.267578 -16.5059 13.7314 -29.8047 30.3018 -29.8047c16.7373 0 20.0654 13.5684 20.0654 30.3057v256.084l0.00292969 0.323242c0.172852 8.61621 7.21094 15.5488 15.8691 15.5488c8.76562 0 15.8721 -7.10645 15.8721 -15.8721v-256.084
l-0.00878906 -1.02637c-0.547852 -33.7949 -17.875 -61.0234 -51.8008 -61.0234c-34.2695 0 -62.0498 27.7812 -62.0498 62.0498v272.404l0.0117188 1.49023c0.795898 49.0801 30.5908 88.6221 79.8604 88.6221c49.7676 0 90.1123 -40.3447 90.1123 -90.1123v-293.376
l-0.0166016 -1.95605c-1.04395 -64.417 -43.3486 -116.315 -108.016 -116.315z" />
    <glyph glyph-name="ban" unicode="&#xf1bd;" 
d="M256 428.544c127.246 0 230.4 -103.153 230.4 -230.4c0 -127.246 -103.154 -230.399 -230.4 -230.399s-230.4 103.153 -230.4 230.399c0 127.247 103.154 230.4 230.4 230.4zM256 397.824c-110.28 0 -199.68 -89.4004 -199.68 -199.681
c0 -110.279 89.3994 -199.68 199.68 -199.68s199.68 89.4004 199.68 199.68c0 110.28 -89.3994 199.681 -199.68 199.681zM378.88 228.864c16.9658 0 30.7197 -13.7539 30.7197 -30.7207c0 -16.9658 -13.7539 -30.7197 -30.7197 -30.7197h-245.76
c-16.9658 0 -30.7197 13.7539 -30.7197 30.7197c0 16.9668 13.7539 30.7207 30.7197 30.7207h245.76z" />
    <glyph glyph-name="ban-filled" unicode="&#xf1be;" 
d="M256 428.544c127.246 0 230.4 -103.153 230.4 -230.4c0 -127.246 -103.154 -230.399 -230.4 -230.399s-230.4 103.153 -230.4 230.399c0 127.247 103.154 230.4 230.4 230.4zM378.88 228.864h-245.76c-16.9658 0 -30.7197 -13.7539 -30.7197 -30.7207
c0 -16.7959 13.4795 -30.4443 30.2119 -30.7158l0.507812 -0.00390625h245.76c16.9658 0 30.7197 13.7539 30.7197 30.7197c0 16.7969 -13.4795 30.4453 -30.2119 30.7168z" />
    <glyph glyph-name="bar-chart" unicode="&#xf10c;" 
d="M30.7197 7.67969c0 5.65527 4.58008 10.2402 10.2432 10.2402h440.313c5.65723 0 10.2432 -4.58301 10.2432 -10.2402v0c0 -5.65527 -4.5791 -10.2393 -10.2432 -10.2393h-440.313c-5.65723 0 -10.2432 4.58301 -10.2432 10.2393v0zM71.6797 197.111v-112.623
c0 -8.49609 6.87305 -15.3682 15.3604 -15.3682c8.48438 0 15.3604 6.87695 15.3604 15.3682v112.623c0 8.49609 -6.87305 15.3691 -15.3604 15.3691c-8.48535 0 -15.3604 -6.87793 -15.3604 -15.3691zM40.96 197.111c0 25.4541 20.625 46.0889 46.0801 46.0889
c25.4492 0 46.0801 -20.6221 46.0801 -46.0889v-112.623c0 -25.4541 -20.625 -46.0879 -46.0801 -46.0879c-25.4492 0 -46.0801 20.6221 -46.0801 46.0879v112.623zM184.32 299.526v-215.053c0 -8.47559 6.87793 -15.3535 15.3594 -15.3535
c8.4873 0 15.3604 6.87207 15.3604 15.3535v215.053c0 8.47559 -6.87793 15.3535 -15.3604 15.3535c-8.48633 0 -15.3594 -6.87207 -15.3594 -15.3535zM153.6 299.526c0 25.4453 20.626 46.0732 46.0801 46.0732c25.4492 0 46.0801 -20.6328 46.0801 -46.0732v-215.053
c0 -25.4453 -20.625 -46.0732 -46.0801 -46.0732c-25.4492 0 -46.0801 20.6328 -46.0801 46.0732v215.053zM296.96 197.111v-112.623c0 -8.49609 6.87305 -15.3682 15.3604 -15.3682c8.48438 0 15.3594 6.87695 15.3594 15.3682v112.623
c0 8.49609 -6.87207 15.3691 -15.3594 15.3691c-8.48535 0 -15.3604 -6.87793 -15.3604 -15.3691zM266.24 197.111c0 25.4541 20.625 46.0889 46.0801 46.0889c25.4492 0 46.0801 -20.6221 46.0801 -46.0889v-112.623c0 -25.4541 -20.626 -46.0879 -46.0801 -46.0879
c-25.4492 0 -46.0801 20.6221 -46.0801 46.0879v112.623zM409.6 340.484v-256.009c0 -8.47363 6.88184 -15.3555 15.3604 -15.3555c8.4873 0 15.3604 6.87305 15.3604 15.3555v256.009c0 8.47363 -6.88184 15.3555 -15.3604 15.3555
c-8.48633 0 -15.3604 -6.87305 -15.3604 -15.3555zM378.88 340.484c0 25.4473 20.625 46.0752 46.0801 46.0752c25.4492 0 46.0801 -20.6396 46.0801 -46.0752v-256.009c0 -25.4473 -20.625 -46.0752 -46.0801 -46.0752c-25.4492 0 -46.0801 20.6396 -46.0801 46.0752
v256.009z" />
    <glyph glyph-name="billboard" unicode="&#xf10d;" 
d="M35.8398 300.543v-36.8633v-86.0156c0 -11.3096 9.16895 -20.4805 20.4736 -20.4805h399.373c11.3027 0 20.4736 9.17188 20.4736 20.4824v86.0137v36.8633c0 11.3105 -9.16895 20.4814 -20.4736 20.4814h-399.373c-11.3037 0 -20.4736 -9.1709 -20.4736 -20.4814z
M286.72 116.224v-122.886c0 -16.793 -13.4766 -30.4385 -30.2119 -30.71l-0.507812 -0.00390625c-16.9658 0 -30.7197 13.749 -30.7197 30.7139v122.886h61.4395zM455.687 351.744c28.2734 0 51.1934 -22.9268 51.1934 -51.2012v-122.877v0
c0 -28.2783 -22.9248 -51.2021 -51.1934 -51.2021h-399.373c-28.2734 0 -51.1934 22.9277 -51.1934 51.2002v122.879c0 28.2773 22.9248 51.2012 51.1934 51.2012h399.373zM256 396.8c8.4834 0 15.3604 -6.87695 15.3604 -15.3594
c0 -8.4834 -6.87695 -15.3604 -15.3604 -15.3604s-15.3604 6.87695 -15.3604 15.3604c0 8.48242 6.87695 15.3594 15.3604 15.3594zM337.92 396.8c8.4834 0 15.3604 -6.87695 15.3604 -15.3594c0 -8.4834 -6.87695 -15.3604 -15.3604 -15.3604
s-15.3604 6.87695 -15.3604 15.3604c0 8.48242 6.87695 15.3594 15.3604 15.3594zM174.08 396.8c8.4834 0 15.3604 -6.87695 15.3604 -15.3594c0 -8.4834 -6.87695 -15.3604 -15.3604 -15.3604s-15.3604 6.87695 -15.3604 15.3604
c0 8.48242 6.87695 15.3594 15.3604 15.3594z" />
    <glyph glyph-name="blockquote" unicode="&#xf209;" 
d="M40.96 422.4c8.4834 0 15.3604 -6.87695 15.3604 -15.3604v-430.08c0 -8.4834 -6.87695 -15.3604 -15.3604 -15.3604s-15.3604 6.87695 -15.3604 15.3604v430.08c0 8.4834 6.87695 15.3604 15.3604 15.3604zM275.456 401.92c28.2773 0 51.2002 -22.9229 51.2002 -51.2002
v-101.971l0.244141 -0.0654297c-14.4912 -54.0811 -69.6689 -86.3955 -123.775 -72.833l-1.62402 0.420898l1.13574 0.460938c34.1006 14.0049 63.4023 38.8994 82.541 71.5869l-60.9219 0.000976562c-28.2764 0 -51.2002 22.9229 -51.2002 51.1992v51.2002
c0 28.2773 22.9238 51.2002 51.2002 51.2002h51.2002zM449.536 401.92c28.2764 0 51.2002 -22.9229 51.2002 -51.2002v-101.971l0.244141 -0.0654297c-14.4912 -54.0811 -69.6689 -86.3955 -123.775 -72.833l-1.62402 0.420898l1.13574 0.460938
c34.1006 14.0049 63.4023 38.8994 82.541 71.5869l-60.9219 0.000976562c-28.2773 0 -51.2002 22.9229 -51.2002 51.1992v51.2002c0 28.2773 22.9229 51.2002 51.2002 51.2002h51.2002z" />
    <glyph glyph-name="bold" unicode="&#xf1f1;" 
d="M286.456 -47.8398h-236.28v57.75l51.1504 9.89941v344.851l-51.1504 9.89941v58.0801h213.51v0c56.54 0 100.65 -11 132.33 -33c31.6807 -22 47.5205 -54.8896 47.5205 -98.6699c0 -22.2197 -5.88477 -42.0752 -17.6553 -59.5645
c-11.7695 -17.4902 -28.875 -30.6357 -51.3145 -39.4355c28.8193 -6.16016 50.4346 -19.3594 64.8447 -39.5996s21.6152 -43.6699 21.6152 -70.29c0 -45.9805 -15.1807 -80.7949 -45.54 -104.445c-30.3604 -23.6494 -73.3701 -35.4746 -129.03 -35.4746zM266.986 231.34v0
c25.7393 0 45.54 5.28027 59.3994 15.8398c13.8604 10.5605 20.79 25.96 20.79 46.2002c0 22.2197 -6.98438 38.6104 -20.9551 49.1699c-13.9697 10.5605 -34.8145 15.8398 -62.5352 15.8398h-66v-127.05h69.3008zM286.456 26.0801v0
c25.5195 0 44.9902 5.55469 58.4102 16.665s20.1299 27.5547 20.1299 49.335c0 23.54 -5.71973 41.5254 -17.1602 53.9551c-11.4395 12.4297 -29.4795 18.6445 -54.1201 18.6445h-96.0303v-138.6h88.7705z" />
    <glyph glyph-name="bookmark" unicode="&#xf214;" 
d="M337.92 442.88c56.5537 0 102.4 -45.8457 102.4 -102.399v-357.287c0 -11.3115 -9.16992 -20.4805 -20.4805 -20.4805c-4.58008 0 -9.02832 1.53516 -12.6338 4.36133l-156.326 122.525l-145.653 -120.684c-8.70996 -7.2168 -21.6201 -6.00684 -28.8369 2.70312
c-3.04395 3.67383 -4.70996 8.2959 -4.70996 13.0664v355.795c0 56.5537 45.8467 102.399 102.4 102.399h163.84zM337.92 412.16h-163.84c-39.1924 0 -71.0371 -31.4541 -71.6709 -70.4951l-0.00878906 -1.18457v-334.011l147.944 122.581l159.255 -124.821v336.251
c0 39.1914 -31.4531 71.0371 -70.4941 71.6699z" />
    <glyph glyph-name="bookmark-filled" unicode="&#xf215;" 
d="M337.92 442.88c56.5537 0 102.4 -45.8457 102.4 -102.399v-357.287c0 -11.3115 -9.16992 -20.4805 -20.4805 -20.4805c-4.58008 0 -9.02832 1.53516 -12.6338 4.36133l-156.326 122.525l-145.653 -120.684c-8.70996 -7.2168 -21.6201 -6.00684 -28.8369 2.70312
c-3.04395 3.67383 -4.70996 8.2959 -4.70996 13.0664v355.795c0 56.5537 45.8467 102.399 102.4 102.399h163.84z" />
    <glyph glyph-name="booth" unicode="&#xf10e;" 
d="M102.4 -12.7998h307.199v122.88h-307.199v-122.88zM71.6797 120.326c0 11.3076 11.0078 20.4736 24.5811 20.4736h319.479c13.5762 0 24.5811 -9.17188 24.5811 -20.4736v-143.372c0 -11.3076 -11.0078 -20.4736 -24.5811 -20.4736h-319.479
c-13.5762 0 -24.5811 9.17188 -24.5811 20.4736v143.372zM102.4 345.6h307.199v50.1768h-307.199v-50.1768zM71.6797 406.023c0 11.3066 11.0078 20.4727 24.5811 20.4727h319.479c13.5762 0 24.5811 -9.16992 24.5811 -20.4727v-70.6709
c0 -11.3066 -11.0078 -20.4727 -24.5811 -20.4727h-319.479c-13.5762 0 -24.5811 9.16992 -24.5811 20.4727v70.6709zM378.88 304.64h30.7197v-153.6h-30.7197v153.6zM133.12 304.64v-153.6h-30.7197v153.6h30.7197zM255.49 204.6
c27.0107 0 48.9844 -21.5615 49.6504 -48.4121c0.0107422 -0.416992 0.015625 -5.14746 0.015625 -5.14746h-99.332l0.000976562 0.479492c0.00195312 1.2373 0.00878906 4.47266 0.0195312 4.86035c0.765625 26.7607 22.6992 48.2197 49.6455 48.2197zM255.242 289.28
c20.5723 0 37.249 -16.6777 37.249 -37.25s-16.6768 -37.25 -37.249 -37.25s-37.25 16.6777 -37.25 37.25s16.6777 37.25 37.25 37.25z" />
    <glyph glyph-name="brightness" unicode="&#xf235;" 
d="M256 23.04c5.65527 0 10.2402 -4.58496 10.2402 -10.2402v-61.4395c0 -5.65527 -4.58496 -10.2402 -10.2402 -10.2402s-10.2402 4.58496 -10.2402 10.2402v61.4395c0 5.65527 4.58496 10.2402 10.2402 10.2402zM354.468 41.9287l30.7207 -53.209
c2.82715 -4.89746 1.14941 -11.1602 -3.74805 -13.9883c-4.89844 -2.82715 -11.1611 -1.14941 -13.9883 3.74805l-30.7207 53.209c-2.82715 4.89746 -1.14941 11.1602 3.74902 13.9883c4.89746 2.82715 11.1602 1.14941 13.9873 -3.74805zM171.52 45.6768
c4.89844 -2.82812 6.57617 -9.09082 3.74902 -13.9883l-30.7207 -53.209c-2.82715 -4.89746 -9.08984 -6.5752 -13.9883 -3.74805c-4.89746 2.82812 -6.5752 9.09082 -3.74805 13.9883l30.7207 53.209c2.82715 4.89746 9.08984 6.5752 13.9873 3.74805zM416.312 111.269
l53.209 -30.7207c4.89746 -2.82715 6.5752 -9.08984 3.74805 -13.9883c-2.82812 -4.89746 -9.09082 -6.5752 -13.9883 -3.74805l-53.209 30.7207c-4.89746 2.82715 -6.5752 9.08984 -3.74805 13.9873c2.82812 4.89844 9.09082 6.57617 13.9883 3.74902zM109.677 107.52
c2.82715 -4.89746 1.14941 -11.1602 -3.74805 -13.9873l-53.209 -30.7207c-4.89746 -2.82715 -11.1602 -1.14941 -13.9883 3.74805c-2.82715 4.89844 -1.14941 11.1611 3.74805 13.9883l53.209 30.7207c4.89746 2.82715 11.1602 1.14941 13.9883 -3.74902zM256 320
c70.6924 0 128 -57.3076 128 -128c0 -69.9854 -56.167 -126.853 -125.883 -127.982l-2.11719 -0.0175781c-70.6924 0 -128 57.3076 -128 128s57.3076 128 128 128zM256 289.28c-53.7266 0 -97.2803 -43.5537 -97.2803 -97.2803s43.5537 -97.2803 97.2803 -97.2803v194.561z
M496.64 202.24c5.65527 0 10.2402 -4.58496 10.2402 -10.2402s-4.58496 -10.2402 -10.2402 -10.2402h-61.4395c-5.65527 0 -10.2402 4.58496 -10.2402 10.2402s4.58496 10.2402 10.2402 10.2402h61.4395zM76.7998 202.24c5.65527 0 10.2402 -4.58496 10.2402 -10.2402
s-4.58496 -10.2402 -10.2402 -10.2402h-61.4395c-5.65527 0 -10.2402 4.58496 -10.2402 10.2402s4.58496 10.2402 10.2402 10.2402h61.4395zM473.269 317.44c2.82715 -4.89844 1.14941 -11.1611 -3.74805 -13.9883l-53.209 -30.7207
c-4.89746 -2.82715 -11.1602 -1.14941 -13.9883 3.74902c-2.82715 4.89746 -1.14941 11.1602 3.74805 13.9873l53.209 30.7207c4.89746 2.82715 11.1602 1.14941 13.9883 -3.74805zM52.7197 321.188l53.209 -30.7207c4.89746 -2.82715 6.5752 -9.08984 3.74805 -13.9873
c-2.82812 -4.89844 -9.09082 -6.57617 -13.9883 -3.74902l-53.209 30.7207c-4.89746 2.82715 -6.5752 9.08984 -3.74805 13.9883c2.82812 4.89746 9.09082 6.5752 13.9883 3.74805zM381.44 409.269c4.89746 -2.82812 6.5752 -9.09082 3.74805 -13.9883l-30.7207 -53.209
c-2.82715 -4.89746 -9.08984 -6.5752 -13.9873 -3.74805c-4.89844 2.82812 -6.57617 9.09082 -3.74902 13.9883l30.7207 53.209c2.82715 4.89746 9.08984 6.5752 13.9883 3.74805zM144.548 405.521l30.7207 -53.209c2.82715 -4.89746 1.14941 -11.1602 -3.74902 -13.9883
c-4.89746 -2.82715 -11.1602 -1.14941 -13.9873 3.74805l-30.7207 53.209c-2.82715 4.89746 -1.14941 11.1602 3.74805 13.9883c4.89844 2.82715 11.1611 1.14941 13.9883 -3.74805zM256 442.88c5.65527 0 10.2402 -4.58496 10.2402 -10.2402v-61.4395
c0 -5.65527 -4.58496 -10.2402 -10.2402 -10.2402s-10.2402 4.58496 -10.2402 10.2402v61.4395c0 5.65527 4.58496 10.2402 10.2402 10.2402z" />
    <glyph glyph-name="calendar" unicode="&#xf10f;" 
d="M378.88 314.88v71.6816c0 -5.19531 1.93359 -9.93848 5.12012 -13.5488c1.46387 -1.65918 3.19238 -3.07812 5.12012 -4.19336c3.0127 -1.74219 6.50977 -2.73926 10.2422 -2.73926h-30.7246c3.73145 0 7.22949 0.99707 10.2422 2.73926
c1.92773 1.11523 3.65625 2.53418 5.12012 4.19336c3.18652 3.61035 5.12012 8.35352 5.12012 13.5488v-71.6816h-266.24v71.6816c0 -5.19531 1.93359 -9.93848 5.12012 -13.5488c1.46387 -1.65918 3.19238 -3.07812 5.12012 -4.19336
c3.0127 -1.74219 6.50977 -2.73926 10.2422 -2.73926h-30.7246c3.73145 0 7.22949 0.99707 10.2422 2.73926c1.92773 1.11523 3.65625 2.53418 5.12012 4.19336c3.18652 3.61035 5.12012 8.35352 5.12012 13.5488v-71.6816h-76.7959
c-11.3096 0 -20.4844 -9.1748 -20.4844 -20.4893v-266.222c0 -11.3213 9.16602 -20.4893 20.4736 -20.4893h399.373c11.3018 0 20.4736 9.17383 20.4736 20.4893v266.222c0 11.3203 -9.16895 20.4893 -20.4844 20.4893h-76.7959zM5.12012 294.391
c0 28.2822 22.9307 51.209 51.2041 51.209h46.0762v40.9619c0 5.6543 4.58789 10.2383 10.2373 10.2383h30.7246c5.6543 0 10.2373 -4.58887 10.2373 -10.2383v-40.9619h204.801v40.9619c0 5.6543 4.58789 10.2383 10.2373 10.2383h30.7246
c5.6543 0 10.2373 -4.58887 10.2373 -10.2383v-40.9619h46.0762c28.2793 0 51.2041 -22.9199 51.2041 -51.209v-266.222c0 -28.2812 -22.9248 -51.209 -51.1934 -51.209h-399.373c-28.2734 0 -51.1934 22.9209 -51.1934 51.209v266.222zM133.12 268.8
c0 8.4834 6.87012 15.3604 15.3604 15.3604h92.1582c8.48438 0 15.3613 -6.875 15.3613 -15.3604v0c0 -8.48242 -6.87012 -15.3594 -15.3613 -15.3594h-92.1582c-8.4834 0 -15.3604 6.875 -15.3604 15.3594v0zM271.36 268.8c0 8.4834 6.87012 15.3604 15.3604 15.3604
h61.4385c8.4834 0 15.3604 -6.875 15.3604 -15.3604v0c0 -8.48242 -6.87012 -15.3594 -15.3604 -15.3594h-61.4385c-8.4834 0 -15.3604 6.875 -15.3604 15.3594v0zM66.5596 197.12c0 8.4834 6.86914 15.3604 15.3652 15.3604h30.71
c8.48633 0 15.3652 -6.87598 15.3652 -15.3604v0c0 -8.4834 -6.86914 -15.3604 -15.3652 -15.3604h-30.71c-8.48535 0 -15.3652 6.875 -15.3652 15.3604v0zM146.432 197.12c0 8.4834 6.86914 15.3604 15.3652 15.3604h30.71c8.48633 0 15.3652 -6.87598 15.3652 -15.3604v0
c0 -8.4834 -6.86914 -15.3604 -15.3652 -15.3604h-30.71c-8.48535 0 -15.3652 6.875 -15.3652 15.3604v0zM225.28 197.12c0 8.4834 6.86914 15.3604 15.3652 15.3604h30.709c8.48633 0 15.3652 -6.87598 15.3652 -15.3604v0c0 -8.4834 -6.86914 -15.3604 -15.3652 -15.3604
h-30.709c-8.48633 0 -15.3652 6.875 -15.3652 15.3604v0zM305.152 197.12c0 8.4834 6.86914 15.3604 15.3652 15.3604h30.709c8.48633 0 15.3652 -6.87598 15.3652 -15.3604v0c0 -8.4834 -6.86914 -15.3604 -15.3652 -15.3604h-30.709
c-8.48633 0 -15.3652 6.875 -15.3652 15.3604v0zM384 197.12c0 8.4834 6.86914 15.3604 15.3652 15.3604h30.71c8.48535 0 15.3652 -6.87598 15.3652 -15.3604v0c0 -8.4834 -6.86914 -15.3604 -15.3652 -15.3604h-30.71c-8.48633 0 -15.3652 6.875 -15.3652 15.3604v0z
M66.5596 145.92c0 8.4834 6.86914 15.3604 15.3652 15.3604h30.71c8.48633 0 15.3652 -6.875 15.3652 -15.3604v0c0 -8.4834 -6.86914 -15.3604 -15.3652 -15.3604h-30.71c-8.48535 0 -15.3652 6.875 -15.3652 15.3604v0zM146.432 145.92
c0 8.4834 6.86914 15.3604 15.3652 15.3604h30.71c8.48633 0 15.3652 -6.875 15.3652 -15.3604v0c0 -8.4834 -6.86914 -15.3604 -15.3652 -15.3604h-30.71c-8.48535 0 -15.3652 6.875 -15.3652 15.3604v0zM225.28 145.92c0 8.4834 6.86914 15.3604 15.3652 15.3604h30.709
c8.48633 0 15.3652 -6.875 15.3652 -15.3604v0c0 -8.4834 -6.86914 -15.3604 -15.3652 -15.3604h-30.709c-8.48633 0 -15.3652 6.875 -15.3652 15.3604v0zM305.152 145.92c0 8.4834 6.86914 15.3604 15.3652 15.3604h30.709c8.48633 0 15.3652 -6.875 15.3652 -15.3604v0
c0 -8.4834 -6.86914 -15.3604 -15.3652 -15.3604h-30.709c-8.48633 0 -15.3652 6.875 -15.3652 15.3604v0zM384 145.92c0 8.4834 6.86914 15.3604 15.3652 15.3604h30.71c8.48535 0 15.3652 -6.875 15.3652 -15.3604v0c0 -8.4834 -6.86914 -15.3604 -15.3652 -15.3604
h-30.71c-8.48633 0 -15.3652 6.875 -15.3652 15.3604v0zM66.5596 94.7197c0 8.4834 6.86914 15.3604 15.3652 15.3604h30.71c8.48633 0 15.3652 -6.875 15.3652 -15.3604v0c0 -8.48242 -6.86914 -15.3594 -15.3652 -15.3594h-30.71
c-8.48535 0 -15.3652 6.875 -15.3652 15.3594v0zM146.432 94.7197c0 8.4834 6.86914 15.3604 15.3652 15.3604h30.71c8.48633 0 15.3652 -6.875 15.3652 -15.3604v0c0 -8.48242 -6.86914 -15.3594 -15.3652 -15.3594h-30.71c-8.48535 0 -15.3652 6.875 -15.3652 15.3594v0z
M225.28 94.7197c0 8.4834 6.86914 15.3604 15.3652 15.3604h30.709c8.48633 0 15.3652 -6.875 15.3652 -15.3604v0c0 -8.48242 -6.86914 -15.3594 -15.3652 -15.3594h-30.709c-8.48633 0 -15.3652 6.875 -15.3652 15.3594v0zM305.152 94.7197
c0 8.4834 6.86914 15.3604 15.3652 15.3604h30.709c8.48633 0 15.3652 -6.875 15.3652 -15.3604v0c0 -8.48242 -6.86914 -15.3594 -15.3652 -15.3594h-30.709c-8.48633 0 -15.3652 6.875 -15.3652 15.3594v0zM384 94.7197c0 8.4834 6.86914 15.3604 15.3652 15.3604h30.71
c8.48535 0 15.3652 -6.875 15.3652 -15.3604v0c0 -8.48242 -6.86914 -15.3594 -15.3652 -15.3594h-30.71c-8.48633 0 -15.3652 6.875 -15.3652 15.3594v0zM66.5596 43.5195c0 8.4834 6.86914 15.3604 15.3652 15.3604h30.71c8.48633 0 15.3652 -6.875 15.3652 -15.3604v0
c0 -8.48242 -6.86914 -15.3594 -15.3652 -15.3594h-30.71c-8.48535 0 -15.3652 6.875 -15.3652 15.3594v0zM146.432 43.5195c0 8.4834 6.86914 15.3604 15.3652 15.3604h30.71c8.48633 0 15.3652 -6.875 15.3652 -15.3604v0c0 -8.48242 -6.86914 -15.3594 -15.3652 -15.3594
h-30.71c-8.48535 0 -15.3652 6.875 -15.3652 15.3594v0zM225.28 43.5195c0 8.4834 6.86914 15.3604 15.3652 15.3604h30.709c8.48633 0 15.3652 -6.875 15.3652 -15.3604v0c0 -8.48242 -6.86914 -15.3594 -15.3652 -15.3594h-30.709
c-8.48633 0 -15.3652 6.875 -15.3652 15.3594v0zM305.152 43.5195c0 8.4834 6.86914 15.3604 15.3652 15.3604h30.709c8.48633 0 15.3652 -6.875 15.3652 -15.3604v0c0 -8.48242 -6.86914 -15.3594 -15.3652 -15.3594h-30.709c-8.48633 0 -15.3652 6.875 -15.3652 15.3594v0
zM384 43.5195c0 8.4834 6.86914 15.3604 15.3652 15.3604h30.71c8.48535 0 15.3652 -6.875 15.3652 -15.3604v0c0 -8.48242 -6.86914 -15.3594 -15.3652 -15.3594h-30.71c-8.48633 0 -15.3652 6.875 -15.3652 15.3594v0z" />
    <glyph glyph-name="calendar-plus" unicode="&#xf110;" 
d="M378.88 314.88v71.6816c0 -5.19531 1.93359 -9.93848 5.12012 -13.5488c1.46387 -1.65918 3.19238 -3.07812 5.12012 -4.19336c3.0127 -1.74219 6.50977 -2.73926 10.2422 -2.73926h-30.7246c3.73145 0 7.22949 0.99707 10.2422 2.73926
c1.92773 1.11523 3.65625 2.53418 5.12012 4.19336c3.18652 3.61035 5.12012 8.35352 5.12012 13.5488v-71.6816h-266.24v71.6816c0 -5.19531 1.93359 -9.93848 5.12012 -13.5488c1.46387 -1.65918 3.19238 -3.07812 5.12012 -4.19336
c3.0127 -1.74219 6.50977 -2.73926 10.2422 -2.73926h-30.7246c3.73145 0 7.22949 0.99707 10.2422 2.73926c1.92773 1.11523 3.65625 2.53418 5.12012 4.19336c3.18652 3.61035 5.12012 8.35352 5.12012 13.5488v-71.6816h-76.7959
c-11.3096 0 -20.4844 -9.1748 -20.4844 -20.4893v-266.222c0 -11.3213 9.16602 -20.4893 20.4736 -20.4893h286.727v-30.7197h112.636c28.2764 0 51.2041 22.9277 51.2041 51.209v112.631h-30.7197v153.591c0 11.3203 -9.16895 20.4893 -20.4844 20.4893h-76.7959z
M5.12012 294.391c0 28.2822 22.9307 51.209 51.2041 51.209h46.0762v40.9619c0 5.6543 4.58789 10.2383 10.2373 10.2383h30.7246c5.6543 0 10.2373 -4.58887 10.2373 -10.2383v-40.9619h204.801v40.9619c0 5.6543 4.58789 10.2383 10.2373 10.2383h30.7246
c5.6543 0 10.2373 -4.58887 10.2373 -10.2383v-40.9619h46.0762c28.2793 0 51.2041 -22.9199 51.2041 -51.209v-266.222c0 -28.2812 -22.9277 -51.209 -51.1934 -51.209h-399.373c-28.2734 0 -51.1934 22.9209 -51.1934 51.209v266.222zM133.12 268.8
c0 8.4834 6.87012 15.3604 15.3604 15.3604h92.1582c8.48438 0 15.3613 -6.875 15.3613 -15.3604v0c0 -8.48242 -6.87012 -15.3594 -15.3613 -15.3594h-92.1582c-8.4834 0 -15.3604 6.875 -15.3604 15.3594v0zM271.36 268.8c0 8.4834 6.87012 15.3604 15.3604 15.3604
h61.4385c8.4834 0 15.3604 -6.875 15.3604 -15.3604v0c0 -8.48242 -6.87012 -15.3594 -15.3604 -15.3594h-61.4385c-8.4834 0 -15.3604 6.875 -15.3604 15.3594v0zM66.5596 197.12c0 8.4834 6.86914 15.3604 15.3652 15.3604h30.71
c8.48633 0 15.3652 -6.87598 15.3652 -15.3604v0c0 -8.4834 -6.86914 -15.3604 -15.3652 -15.3604h-30.71c-8.48535 0 -15.3652 6.875 -15.3652 15.3604v0zM146.432 197.12c0 8.4834 6.86914 15.3604 15.3652 15.3604h30.71c8.48633 0 15.3652 -6.87598 15.3652 -15.3604v0
c0 -8.4834 -6.86914 -15.3604 -15.3652 -15.3604h-30.71c-8.48535 0 -15.3652 6.875 -15.3652 15.3604v0zM66.5596 145.92c0 8.4834 6.86914 15.3604 15.3652 15.3604h30.71c8.48633 0 15.3652 -6.875 15.3652 -15.3604v0c0 -8.4834 -6.86914 -15.3604 -15.3652 -15.3604
h-30.71c-8.48535 0 -15.3652 6.875 -15.3652 15.3604v0zM146.432 145.92c0 8.4834 6.86914 15.3604 15.3652 15.3604h30.71c8.48633 0 15.3652 -6.875 15.3652 -15.3604v0c0 -8.4834 -6.86914 -15.3604 -15.3652 -15.3604h-30.71
c-8.48535 0 -15.3652 6.875 -15.3652 15.3604v0zM66.5596 94.7197c0 8.4834 6.86914 15.3604 15.3652 15.3604h30.71c8.48633 0 15.3652 -6.875 15.3652 -15.3604v0c0 -8.48242 -6.86914 -15.3594 -15.3652 -15.3594h-30.71c-8.48535 0 -15.3652 6.875 -15.3652 15.3594v0z
M146.432 94.7197c0 8.4834 6.86914 15.3604 15.3652 15.3604h30.71c8.48633 0 15.3652 -6.875 15.3652 -15.3604v0c0 -8.48242 -6.86914 -15.3594 -15.3652 -15.3594h-30.71c-8.48535 0 -15.3652 6.875 -15.3652 15.3594v0zM66.5596 43.5195
c0 8.4834 6.86914 15.3604 15.3652 15.3604h30.71c8.48633 0 15.3652 -6.875 15.3652 -15.3604v0c0 -8.48242 -6.86914 -15.3594 -15.3652 -15.3594h-30.71c-8.48535 0 -15.3652 6.875 -15.3652 15.3594v0zM146.432 43.5195c0 8.4834 6.86914 15.3604 15.3652 15.3604h30.71
c8.48633 0 15.3652 -6.875 15.3652 -15.3604v0c0 -8.48242 -6.86914 -15.3594 -15.3652 -15.3594h-30.71c-8.48535 0 -15.3652 6.875 -15.3652 15.3594v0zM228.352 197.12c0 8.4834 6.86914 15.3604 15.3652 15.3604h30.71c8.48633 0 15.3652 -6.87598 15.3652 -15.3604v0
c0 -8.4834 -6.86914 -15.3604 -15.3652 -15.3604h-30.71c-8.48535 0 -15.3652 6.875 -15.3652 15.3604v0zM228.352 145.92c0 8.4834 6.86914 15.3604 15.3652 15.3604h30.71c8.48633 0 15.3652 -6.875 15.3652 -15.3604v0c0 -8.4834 -6.86914 -15.3604 -15.3652 -15.3604
h-30.71c-8.48535 0 -15.3652 6.875 -15.3652 15.3604v0zM228.352 94.7197c0 8.4834 6.86914 15.3604 15.3652 15.3604h30.71c8.48633 0 15.3652 -6.875 15.3652 -15.3604v0c0 -8.48242 -6.86914 -15.3594 -15.3652 -15.3594h-30.71
c-8.48535 0 -15.3652 6.875 -15.3652 15.3594v0zM414.72 140.8c8.4834 0 15.3604 -6.88281 15.3604 -15.3584v-51.2012h61.4473c8.37109 0 15.1787 -6.70215 15.3496 -15.0391l0.00292969 -0.321289c0 -8.4834 -6.87793 -15.3604 -15.3525 -15.3604h-61.4473v-51.2012
c0 -8.375 -6.70215 -15.1836 -15.0391 -15.3555l-0.321289 -0.00292969c-8.48242 0 -15.3594 6.88379 -15.3594 15.3584v51.2012h-51.207c-8.47949 0 -15.3535 6.87598 -15.3535 15.3604c0 8.4834 6.87793 15.3604 15.3535 15.3604h51.207v51.2012
c0 8.375 6.70215 15.1846 15.0381 15.3555zM274.427 58.8799c8.37891 0 15.1904 -6.70215 15.3623 -15.0381l0.00292969 -0.322266c0 -8.48242 -6.86914 -15.3594 -15.3652 -15.3594h-30.71c-8.48535 0 -15.3652 6.875 -15.3652 15.3594
c0 8.4834 6.86914 15.3604 15.3652 15.3604h30.71z" />
    <glyph glyph-name="call" unicode="&#xf111;" 
d="M385.335 233.884c0 0 75.0908 75.7266 74.998 75.9561c-2.79492 6.89746 -6.42188 13.7969 -10.9141 20.1553c-8.90234 12.6025 -19.9717 21.3916 -33.499 25.1914c-17.4102 4.8916 -39.0576 1.65332 -65.8828 -12.1914
c-81.373 -41.9951 -202.716 -163.774 -244.247 -244.247c-14.2773 -27.6631 -17.6885 -49.749 -12.7939 -67.2139c3.77246 -13.4639 12.5752 -24.2979 25.2529 -32.8662c6.38184 -4.3125 13.3125 -7.74902 21.1719 -10.6982c0 0 75.4883 75.6484 75.4912 75.7412
c0.0341797 1.54297 -0.341797 3.68164 -1.3623 6.50293c-3.31348 9.16211 -11.8496 21.3604 -27.0322 36.543l-10.8613 10.8613l155.511 155.511l10.8613 -10.8613c15.1826 -15.1826 27.3809 -23.7188 36.543 -27.0322c2.82129 -1.02051 4.95996 -1.39648 6.76367 -1.35156z
M331.481 229.998l-112.694 -112.694c11.9736 -13.5312 19.6836 -25.6699 23.6514 -36.6436c4.33691 -11.9922 4.10352 -22.4219 0.324219 -30.6074c-1.34082 -2.90332 -2.94629 -5.13184 -4.54004 -6.72559l-89.6035 -89.6035s-8.92969 2.02148 -9.44727 2.1543
c-0.780273 0.199219 -1.66211 0.439453 -2.6377 0.722656c-2.69824 0.783203 -5.66895 1.76172 -8.84863 2.95703c-9.05078 3.40137 -18.1025 7.88965 -26.6377 13.6582c-18.2842 12.3574 -31.7041 28.873 -37.6328 50.0293
c-7.16016 25.5537 -2.54297 55.4531 15.0762 89.5918c44.4473 86.123 170.399 212.527 257.457 257.457c33.3359 17.2041 62.832 21.6172 88.2812 14.4678c20.9824 -5.89453 37.5957 -19.085 50.2812 -37.043c5.95898 -8.43555 10.665 -17.3877 14.293 -26.3408
c1.27539 -3.14746 2.33105 -6.08789 3.18359 -8.75977c0.308594 -0.96582 0.571289 -1.83789 1.1123 -3.78613l2.15723 -8.4707l-89.7988 -89.7988c-1.59375 -1.59375 -3.82227 -3.19922 -6.72559 -4.54004c-8.18555 -3.7793 -18.6152 -4.0127 -30.6074 0.324219
c-10.9736 3.96777 -23.1113 11.6777 -36.6436 23.6514z" />
    <glyph glyph-name="call-end" unicode="&#xf112;" 
d="M47.9424 400.876l417.352 -417.352h-43.4434l-168.422 168.423l-34.6416 -34.6436c11.7598 -13.29 19.4072 -25.2363 23.4355 -36.0547l0.21582 -0.588867c4.33691 -11.9922 4.10352 -22.4219 0.324219 -30.6074c-1.2627 -2.73242 -2.75781 -4.86719 -4.25879 -6.4375
l-0.28125 -0.288086l-89.6035 -89.6035l-9.44727 2.1543v0c-0.780273 0.199219 -1.66211 0.439453 -2.6377 0.722656c-2.69824 0.783203 -5.66895 1.76172 -8.84863 2.95703c-9.05078 3.40137 -18.1025 7.88965 -26.6377 13.6582
c-18.2842 12.3574 -31.7041 28.873 -37.6328 50.0293c-7.16016 25.5537 -2.54297 55.4531 15.0762 89.5918c18.9033 36.627 52.5479 80.541 91.6738 122.374l-165.666 165.665h43.4434zM105.79 98.748c-14.2773 -27.6631 -17.6885 -49.749 -12.7939 -67.2139
c3.77246 -13.4639 12.5752 -24.2979 25.2529 -32.8662c6.38184 -4.3125 13.3125 -7.74902 21.1719 -10.6982l67.3691 67.5576c4.98828 5.01074 8.12109 8.16504 8.12207 8.18359c0.0341797 1.54297 -0.341797 3.68164 -1.3623 6.50293
c-3.26855 9.04004 -11.623 21.0361 -26.4287 35.9375l-11.4648 11.4668l56.0508 56.0508l-39.8096 39.8086c-36.9043 -39.5361 -68.5986 -80.8037 -86.1074 -114.729zM424.229 384.762c20.9824 -5.89453 37.5957 -19.085 50.2812 -37.043
c5.95898 -8.43555 10.665 -17.3877 14.293 -26.3408c1.15918 -2.86133 2.1377 -5.55176 2.94629 -8.02441l0.398438 -1.24414c0.195312 -0.626953 0.395508 -1.30176 0.688477 -2.33984l0.262695 -0.9375l2.15723 -8.4707l-89.7988 -89.7988
c-1.59375 -1.59375 -3.82227 -3.19922 -6.72559 -4.54004c-8.18555 -3.7793 -18.6152 -4.0127 -30.6074 0.324219c-10.7773 3.89648 -22.6787 11.4033 -35.9199 23.0146l-0.723633 0.636719l-34.6094 -34.6074l-21.7217 21.7227l56.0166 56.0156l10.8613 -10.8613
l1.20801 -1.2002c14.623 -14.4336 26.417 -22.6074 35.335 -25.832c2.82129 -1.02051 4.95996 -1.39648 6.76367 -1.35156l39.7842 40.166c17.9805 18.1748 35.2588 35.6797 35.2139 35.79c-2.79492 6.89746 -6.42188 13.7969 -10.9141 20.1553
c-8.90234 12.6025 -19.9717 21.3916 -33.499 25.1914c-17.4102 4.8916 -39.0576 1.65332 -65.8828 -12.1914c-34.1465 -17.6221 -75.3311 -49.2939 -114.703 -86.0674l-21.7324 21.7334c41.6631 38.9883 85.4902 72.6123 122.347 91.6328
c33.3359 17.2041 62.832 21.6172 88.2812 14.4678z" />
    <glyph glyph-name="camera" unicode="&#xf20a;" 
d="M286.72 305.664c93.3145 0 168.96 -75.6465 168.96 -168.96c0 -93.3145 -75.6455 -168.96 -168.96 -168.96c-93.3135 0 -168.96 75.6455 -168.96 168.96c0 93.3135 75.6465 168.96 168.96 168.96zM329.175 376.32c8.37402 0 15.9043 -5.09863 19.0146 -12.874
l23.5225 -58.8066h83.9678c28.2773 0 51.2002 -22.9229 51.2002 -51.1992v-204.801c0 -28.2764 -22.9229 -51.1992 -51.2002 -51.1992l-48.2148 -0.00488281c10.5273 9.13477 20.0078 19.4434 28.2393 30.7227l19.9756 0.00195312c11.1934 0 20.2891 8.97949 20.4805 20.127
v205.153c0 11.1924 -8.97949 20.2881 -20.127 20.4766l-0.353516 0.00292969l-45.8936 0.00292969c-19.6436 17.6299 -43.0947 31.1025 -68.9688 39.0352l-15.1094 37.7617h-139.417l-18.4316 -46.0801l42.79 0.00390625
c-17.248 -7.8252 -33.0771 -18.2295 -46.9961 -30.7207l-107.333 -0.00292969c-11.1934 0 -20.2891 -8.97949 -20.4805 -20.127v-205.153c0 -11.1924 8.97949 -20.2881 20.127 -20.4766l0.353516 -0.00292969l81.415 -0.00195312
c8.23145 -11.2793 17.7129 -21.5879 28.2402 -30.7227l-109.655 0.00488281c-28.2773 0 -51.2002 22.9229 -51.2002 51.1992v204.801c0 28.2764 22.9229 51.1992 51.2002 51.1992h-5.12012v10.2402c0 11.3105 9.16895 20.4805 20.4795 20.4805h20.4805
c11.3105 0 20.4795 -9.16992 20.4795 -20.4805v-10.2402h27.6484l23.5225 58.8066c3.11035 7.77539 10.6406 12.874 19.0146 12.874h146.35zM286.72 274.944c-76.3477 0 -138.239 -61.8926 -138.239 -138.24s61.8916 -138.24 138.239 -138.24s138.24 61.8926 138.24 138.24
s-61.8926 138.24 -138.24 138.24zM286.72 213.504c42.416 0 76.7998 -34.3848 76.7998 -76.7998c0 -42.416 -34.3838 -76.7998 -76.7998 -76.7998c-42.415 0 -76.7998 34.3838 -76.7998 76.7998c0 42.415 34.3848 76.7998 76.7998 76.7998zM286.72 182.784
c-25.4492 0 -46.0801 -20.6309 -46.0801 -46.0801s20.6309 -46.0801 46.0801 -46.0801s46.0801 20.6309 46.0801 46.0801s-20.6309 46.0801 -46.0801 46.0801zM66.5596 263.68c11.3115 0 20.4805 -9.16895 20.4805 -20.4795s-9.16895 -20.4805 -20.4805 -20.4805
c-11.3105 0 -20.4795 9.16992 -20.4795 20.4805s9.16895 20.4795 20.4795 20.4795z" />
    <glyph glyph-name="chat" unicode="&#xf113;" 
d="M398.141 120.32h57.5352c11.3105 0 20.4844 9.17285 20.4844 20.4814v204.796c0 11.3086 -9.17188 20.4824 -20.4736 20.4824h-399.373c-11.3027 0 -20.4736 -9.17188 -20.4736 -20.4824v-204.796c0 -11.3066 9.1748 -20.4814 20.4844 -20.4814h230.396v-96.5645z
M5.12012 345.598c0 28.2783 22.9248 51.2021 51.1934 51.2021h399.373c28.2734 0 51.1934 -22.9326 51.1934 -51.2021v-204.796c0 -28.2773 -22.9307 -51.2021 -51.2041 -51.2021h-46.0762l-153.6 -133.119v133.119h-199.676c-28.2793 0 -51.2041 22.9336 -51.2041 51.2021
v204.796z" />
    <glyph glyph-name="chat-conversation" unicode="&#xf114;" 
d="M296.96 8.39551l111.421 96.5645h47.3018c11.3086 0 20.4775 9.16699 20.4775 20.4697v153.62c0 11.3047 -9.16992 20.4697 -20.4902 20.4697h-337.899c-11.3242 0 -20.4902 -9.16309 -20.4902 -20.4697v-153.62c0 -11.3057 9.16504 -20.4697 20.4756 -20.4697h179.204
v-96.5645zM455.67 330.24c28.2822 0 51.21 -22.916 51.21 -51.1904v-153.62c0 -28.2715 -22.9258 -51.1895 -51.1973 -51.1895h-34.8184l-154.624 -133.12v133.12h-148.484c-28.2744 0 -51.1963 22.915 -51.1963 51.1895v153.62c0 28.2715 22.9189 51.1904 51.2109 51.1904
h337.899zM394.24 417.28c30.7197 0 51.2002 -20.4805 51.2002 -51.2002v-25.5996v0h-30.7207v25.5996v0c0 10.2402 -10.2393 20.4795 -20.4795 20.4795h-337.92v0c-10.2402 0 -20.4805 -10.2393 -20.4805 -20.4795s-1.36816 -141.97 0 -153.6
c1.36816 -11.6309 10.2402 -20.4805 20.4805 -20.4805v-30.7197v0c-31.7441 0 -51.2002 20.4795 -51.2002 51.2002v153.6v0c0 30.7197 20.4795 51.2002 51.2002 51.2002h337.92v0z" />
    <glyph glyph-name="check" unicode="&#xf1da;" 
d="M440.338 325.741c5.99902 -5.99805 5.99902 -15.7236 0 -21.7227l-249.807 -249.807l-119.473 119.473c-5.99805 5.99902 -5.99805 15.7246 0 21.7227c5.99902 5.99805 15.7236 5.99805 21.7227 0l97.75 -97.75l228.085 228.084
c5.99805 5.99805 15.7236 5.99805 21.7217 0z" />
    <glyph glyph-name="clear-format" unicode="&#xf1f2;" 
d="M47.54 442.88l8.5166 -10.2402h0.588867l62.7959 -75.4961l-0.0478516 -0.649414l88.25 -106.097v0.706055l96.3594 -115.848v-0.705078l160.894 -193.431h-43.4453l-117.448 141.2l0.000976562 -62.5107l51.4805 -9.89941v-57.75h-199.32v57.75l51.4795 9.89941v178.358
l-91.7822 110.343l-0.287109 -3.91113h-73.5898v92.7295l-37.8887 45.5508h43.4443zM470.324 432.64v-128.04h-73.9199l-3.95996 53.79h-88.4404l-0.000976562 -170.901l-96.3594 115.846v55.0557l-45.7939 0.000976562l-61.7598 74.249h370.234z" />
    <glyph glyph-name="clock" unicode="&#xf115;" 
d="M256 442.88c138.558 0 250.88 -112.322 250.88 -250.88c0 -50.2227 -14.7568 -96.999 -40.1729 -136.229c-15.1406 -23.3701 -34.0635 -44.0625 -55.9033 -61.21c-21.084 -16.5547 -44.8857 -29.8047 -70.626 -38.9707
c-26.3125 -9.36914 -54.6494 -14.4707 -84.1777 -14.4707c-138.558 0 -250.88 112.322 -250.88 250.88s112.322 250.88 250.88 250.88zM256 412.16c-121.591 0 -220.16 -98.5693 -220.16 -220.16s98.5693 -220.16 220.16 -220.16c25.5098 0 50.3848 4.32715 73.8721 12.6914
c22.3779 7.96875 43.29 19.5332 61.9609 34.1924c19.208 15.082 35.8193 33.2637 49.0928 53.752c22.8838 35.3223 35.2344 76.4688 35.2344 119.524c0 121.591 -98.5693 220.16 -220.16 220.16zM143.359 181.76c-8.48242 0 -15.3594 6.875 -15.3594 15.3604
c0 8.4834 6.87793 15.3604 15.3594 15.3604h97.2803v158.729c0 8.37109 6.70215 15.1768 15.0391 15.3477l0.321289 0.00292969c8.4834 0 15.3604 -6.87207 15.3604 -15.3506v-174.098c0 -7.5127 -5.39844 -13.7646 -12.5312 -15.0918l-0.306641 -0.0537109
c-0.717773 -0.118164 -1.45215 -0.1875 -2.2002 -0.202148l-0.322266 -0.00390625h-112.641z" />
    <glyph glyph-name="copy" unicode="&#xf1c3;" 
d="M450.57 340.48c27.9912 0 50.7305 -22.4668 51.1826 -50.3525l0.00683594 -0.84668v-225.281l-102.399 -102.4h-163.851c-27.9912 0 -50.7305 22.4668 -51.1826 50.3525l-0.00683594 0.84668v276.482c0 27.9863 22.4619 50.7393 50.3438 51.1914l0.845703 0.0078125
h215.061zM450.926 309.76h-215.769c-11.0195 -0.189453 -19.9258 -9.09668 -20.1143 -20.1221l-0.00292969 -0.356445v-276.482l0.00292969 -0.352539c0.186523 -11.0312 9.08691 -19.9355 20.1104 -20.126h151.481l84.4053 84.4053v212.556l-0.00292969 0.352539
c-0.186523 11.0312 -9.08691 19.9346 -20.1113 20.126zM464.896 94.7197l-92.1602 -92.1602v92.1602h92.1602zM276.49 442.88c27.9912 0 50.7305 -22.4658 51.1826 -50.3525l0.00683594 -0.84668v-20.4805h-30.7197v20.4805l-0.00292969 0.353516
c-0.188477 11.1494 -9.2793 20.126 -20.4668 20.126h-215.412c-11.0205 -0.189453 -19.9268 -9.09668 -20.1152 -20.123l-0.00292969 -0.356445v-276.481l0.00292969 -0.352539c0.186523 -11.0322 9.08691 -19.9355 20.1113 -20.124l0.355469 -0.00292969h92.1699v-30.7197
h-92.1699c-27.9912 0 -50.7305 22.4668 -51.1826 50.3525l-0.00683594 0.84668v276.481c0 27.9863 22.4619 50.7402 50.3438 51.1924l0.845703 0.00683594h215.061z" />
    <glyph glyph-name="copy-to" unicode="&#xf221;" 
d="M163.115 371.2c13.5791 0 26.6025 -5.39453 36.2041 -14.9971l56.6826 -56.6836h199.682c28.2764 0 51.1992 -22.9229 51.1992 -51.1992v-184.32c0 -28.2773 -22.9229 -51.2002 -51.1992 -51.2002h-399.363c-28.2773 0 -51.2002 22.9229 -51.2002 51.2002v61.4404
h30.7197v-61.4404c0 -11.1934 8.97949 -20.2891 20.127 -20.4766l0.353516 -0.00390625h399.363c11.1924 0 20.2881 8.97949 20.4795 20.1279v184.673c0 11.1924 -8.97852 20.2881 -20.127 20.4766l-0.352539 0.00292969h-212.407l-65.6797 65.6816
c-3.7334 3.73438 -8.76172 5.87695 -14.0293 5.99316l-0.452148 0.00585938h-106.795c-11.1934 0 -20.2891 -8.97949 -20.4805 -20.1279v-102.753h-30.7197v102.4c0 28.2773 22.9229 51.2002 51.2002 51.2002h106.795zM186.184 269.421l97.75 -97.75l-97.75 -97.751
c-5.99902 -5.99805 -15.7236 -5.99805 -21.7227 0c-5.99805 5.99902 -5.99805 15.7246 0 21.7227l60.7363 60.7363l-220.077 -0.000976562v30.7207l219.941 0.000976562l-60.6006 60.5996c-5.99805 5.99805 -5.99805 15.7236 0 21.7217
c5.99902 5.99902 15.7236 5.99902 21.7227 0zM375.808 232.96c8.4834 0 15.3604 -6.87695 15.3604 -15.3604v-30.7197h30.7197c8.4834 0 15.3604 -6.87695 15.3604 -15.3604c0 -8.48242 -6.87695 -15.3594 -15.3604 -15.3594h-30.7197v-30.7197
c0 -8.4834 -6.87695 -15.3604 -15.3604 -15.3604c-8.48242 0 -15.3594 6.87695 -15.3594 15.3604v30.7197h-30.7207c-8.48242 0 -15.3594 6.87695 -15.3594 15.3594c0 8.4834 6.87695 15.3604 15.3594 15.3604h30.7207v30.7197c0 8.4834 6.87695 15.3604 15.3594 15.3604z
" />
    <glyph glyph-name="credit-card" unicode="&#xf1c4;" 
d="M445.44 345.6c33.5928 0 60.8887 -26.96 61.4316 -60.4238l0.0078125 -1.01562v-184.32c0 -33.5928 -26.96 -60.8887 -60.4238 -61.4316l-1.01562 -0.0078125h-378.881c-33.5928 0 -60.8887 26.96 -61.4316 60.4238l-0.0078125 1.01562v184.32
c0 33.5928 26.96 60.8887 60.4238 61.4316l1.01562 0.0078125h378.881zM445.44 314.88h-378.881c-16.7959 0 -30.4443 -13.4805 -30.7197 -30.2119v-184.828c0 -16.7959 13.4805 -30.4443 30.2119 -30.7158l0.507812 -0.00390625h378.881
c16.7959 0 30.4443 13.4805 30.7197 30.2119v184.828c0 16.7959 -13.4805 30.4443 -30.2119 30.7158zM250.88 140.8c5.65527 0 10.2402 -4.58398 10.2402 -10.2402c0 -5.65527 -4.58496 -10.2393 -10.2402 -10.2393h-184.32c-5.65527 0 -10.2393 4.58398 -10.2393 10.2393
c0 5.65625 4.58398 10.2402 10.2393 10.2402h184.32zM138.24 181.76c5.65527 0 10.2402 -4.58398 10.2402 -10.2402c0 -5.65527 -4.58496 -10.2393 -10.2402 -10.2393h-71.6807c-5.65527 0 -10.2393 4.58398 -10.2393 10.2393c0 5.65625 4.58398 10.2402 10.2393 10.2402
h71.6807zM240.64 181.76c5.65527 0 10.2402 -4.58398 10.2402 -10.2402c0 -5.65527 -4.58496 -10.2393 -10.2402 -10.2393h-71.6797c-5.65527 0 -10.2402 4.58398 -10.2402 10.2393c0 5.65625 4.58496 10.2402 10.2402 10.2402h71.6797zM343.04 181.76
c5.65527 0 10.2402 -4.58398 10.2402 -10.2402c0 -5.65527 -4.58496 -10.2393 -10.2402 -10.2393h-71.6797c-5.65527 0 -10.2402 4.58398 -10.2402 10.2393c0 5.65625 4.58496 10.2402 10.2402 10.2402h71.6797zM445.44 181.76c5.65527 0 10.2393 -4.58398 10.2393 -10.2402
c0 -5.65527 -4.58398 -10.2393 -10.2393 -10.2393h-71.6807c-5.65527 0 -10.2402 4.58398 -10.2402 10.2393c0 5.65625 4.58496 10.2402 10.2402 10.2402h71.6807zM81.9199 238.08v-10.2402h66.5605v-5.12012c0 -5.65527 -4.58496 -10.2393 -10.2402 -10.2393h-71.6807
c-5.65527 0 -10.2393 4.58398 -10.2393 10.2393v15.3604h25.5996zM112.64 258.56v-20.4795h-20.4795v20.4795h20.4795zM148.48 248.32v-10.2402h-25.6006v10.2402h25.6006zM81.9199 258.56v-10.2393h-25.5996v10.2393h25.5996zM138.24 284.16
c5.65527 0 10.2402 -4.58496 10.2402 -10.2402v-15.3604h-25.6006v10.2402h-66.5596v5.12012c0 5.65527 4.58398 10.2402 10.2393 10.2402h71.6807z" />
    <glyph glyph-name="credit-card-alt" unicode="&#xf1c5;" 
d="M445.44 345.6c33.5928 0 60.8887 -26.96 61.4316 -60.4238l0.0078125 -1.01562v-184.32c0 -33.5928 -26.96 -60.8887 -60.4238 -61.4316l-1.01562 -0.0078125h-378.881c-33.5928 0 -60.8887 26.96 -61.4316 60.4238l-0.0078125 1.01562v184.32
c0 33.5928 26.96 60.8887 60.4238 61.4316l1.01562 0.0078125h378.881zM476.16 212.48h-440.32v-112.641c0 -16.7959 13.4805 -30.4443 30.2119 -30.7158l0.507812 -0.00390625h378.881c16.7959 0 30.4443 13.4805 30.7197 30.2119v113.148zM136.192 171.52
c19.7939 0 35.8398 -16.0459 35.8398 -35.8398s-16.0459 -35.8398 -35.8398 -35.8398c-7.61523 0 -14.6758 2.375 -20.4805 6.4248c-5.80371 -4.0498 -12.8643 -6.4248 -20.4795 -6.4248c-19.7939 0 -35.8408 16.0459 -35.8408 35.8398s16.0469 35.8398 35.8408 35.8398
c7.61523 0 14.6758 -2.375 20.4805 -6.4248c5.80371 4.05078 12.8643 6.4248 20.4795 6.4248zM455.68 171.52v-51.1992h-153.6v51.1992h153.6zM445.44 314.88h-378.881c-16.7959 0 -30.4443 -13.4805 -30.7197 -30.2119v-20.9883h440.32v20.4805
c0 16.7959 -13.4805 30.4443 -30.2119 30.7158z" />
    <glyph glyph-name="crop" unicode="&#xf236;" 
d="M303.021 422.4c25.9688 0 47.0205 -21.0518 47.0205 -47.0205v-89.3389h89.3389c25.9688 0 47.0205 -21.0518 47.0205 -47.0205v-230.4c0 -25.9688 -21.0518 -47.0205 -47.0205 -47.0205h-230.4c-25.9688 0 -47.0205 21.0518 -47.0205 47.0205v89.3389h-89.3389
c-25.9688 0 -47.0205 21.0518 -47.0205 47.0205v230.4c0 25.9688 21.0518 47.0205 47.0205 47.0205h230.4zM304 268.8h-96c-15.7471 0 -28.542 -12.6377 -28.7959 -28.3232l-0.00390625 -0.476562v-96c0 -15.7471 12.6377 -28.542 28.3232 -28.7959l0.476562 -0.00390625h96
c15.7471 0 28.542 12.6377 28.7959 28.3232l0.00390625 0.476562v96c0 15.7471 -12.6377 28.542 -28.3232 28.7959z" />
    <glyph glyph-name="currency-bitcoin" unicode="&#xf222;" 
d="M106.496 -2.55957v389.119h67.584v56.3203h30.7197v-56.3203h51.2002v56.3203h30.7197v-56.3203h13.2402l0.861328 -0.00390625c13.1777 -0.121094 25.1309 -3.04297 35.8584 -8.76465c10.9609 -5.8457 20.2783 -13.4277 27.9512 -22.7441
c7.67285 -9.31738 13.6094 -19.9131 17.8115 -31.7871c4.20215 -11.875 6.30273 -23.8408 6.30273 -35.8984c0 -19.3643 -4.84082 -37.2676 -14.5234 -53.709s-23.4756 -28.6816 -41.3779 -36.7197c22.2871 -6.57715 39.916 -18.7256 52.8867 -36.4463
c12.9707 -17.7197 19.4561 -38.6377 19.4561 -62.752c0 -14.9805 -3.01367 -28.6816 -9.04297 -41.1045c-6.02832 -12.4229 -14.249 -23.0186 -24.6621 -31.7871s-22.4707 -15.5283 -36.1719 -20.2783c-13.3594 -4.63086 -27.6729 -7.00391 -42.9424 -7.12012
l-1.17578 -0.00390625h-4.47168v-56.3203h-30.7197v56.3203h-51.2002v-56.3203h-30.7197v56.3203h-67.584zM295.027 173.914h-139.206v-133.726h135.37c9.13379 0 17.5371 1.82715 25.21 5.48047s14.4326 8.49512 20.2783 14.5234s10.4131 13.0625 13.7012 21.1006
s4.93262 16.4414 4.93262 25.21c0 8.76953 -1.55273 17.2637 -4.6582 25.4854c-3.10547 8.2207 -7.30762 15.4365 -12.6055 21.6475c-5.29785 6.21191 -11.6006 11.1445 -18.9082 14.7979c-7.08594 3.54297 -14.8584 5.36816 -23.3193 5.47559zM282.97 343.812h-127.148
v-129.89h123.86c8.76953 0 16.8076 1.73633 24.1143 5.20703c7.30762 3.4707 13.6104 8.12891 18.9082 13.9756c5.29785 5.8457 9.5 12.6963 12.6055 20.5518s4.6582 16.168 4.6582 24.9365c0 9.13477 -1.46094 17.7207 -4.38379 25.7588
c-2.92383 8.03809 -6.85156 14.9805 -11.7832 20.8262c-4.93262 5.8457 -10.9619 10.4131 -18.0859 13.7012c-6.8877 3.17871 -14.2012 4.82129 -21.9424 4.92676z" />
    <glyph glyph-name="currency-cny" unicode="&#xf223;" 
d="M450.515 383.849h-385.161v50.8398h385.161v-50.8398zM33.3027 -50.4941l-28.1826 44.208c59.6807 21.5518 100.021 48.6289 121.571 81.2324c20.999 35.3662 32.6035 80.6787 34.8145 136.491v9.94727h-138.703v50.8389h475.788v-50.8389h-148.097v-192.305
c0 -14.3672 6.63184 -22.1035 20.4463 -22.1035h60.7861c8.28906 0 14.3672 4.4209 18.2354 12.71c4.97363 9.39355 8.28906 37.0234 9.39453 83.4424l47.5234 -15.4736c-3.86816 -61.8906 -11.0518 -98.3623 -20.999 -110.52
c-9.94629 -11.0518 -24.3145 -17.1309 -44.208 -17.1309h-85.6523c-37.5771 0 -56.3652 19.3418 -56.3652 58.0234v203.356h-87.3105v-9.94727c-2.21094 -70.7324 -17.6836 -127.65 -45.3135 -170.2c-27.6299 -39.2344 -71.8379 -69.627 -133.729 -91.7314z" />
    <glyph glyph-name="currency-eur" unicode="&#xf224;" 
d="M307.854 -58.8799c-27.876 0 -53.7773 4.99414 -77.7031 14.9834c-23.9268 9.98828 -45.4141 23.3457 -64.4629 40.0703c-19.0479 16.7256 -35.4248 36.2383 -49.1299 58.5391c-13.7061 22.3008 -24.043 45.9951 -31.0117 71.083h-77.3545l15.3311 36.2383h54.3574v0
c-1.39355 11.1494 -2.09082 22.5322 -2.09082 34.1475v6.96875h-50.873l15.332 36.2383h39.0254v0c4.64648 26.4814 13.125 51.918 25.4365 76.3096c12.3115 24.3906 28.3398 45.9941 48.0859 64.8105c19.7451 18.8154 42.8584 33.915 69.3398 45.2979
c26.4824 11.3818 56.2158 17.0732 89.2021 17.0732c44.1357 0 82 -9.98828 113.593 -29.9658c31.5918 -19.9775 55.0537 -45.9951 70.3857 -78.0518l-49.4795 -32.0566v0c-7.43359 15.7959 -16.377 29.0371 -26.8301 39.7227s-21.8359 19.2803 -34.1475 25.7842
c-12.3115 6.50488 -24.9717 11.1504 -37.9805 13.9385c-13.0088 2.78711 -25.7852 4.18066 -38.3291 4.18066c-23.2295 0 -44.0195 -4.06445 -62.3711 -12.1953c-18.3516 -8.12988 -34.4961 -18.9316 -48.4336 -32.4053
c-13.9385 -13.4727 -25.4365 -29.0371 -34.4961 -46.6914s-15.6807 -36.2383 -19.8613 -55.751h219.52l-15.3311 -36.2383h-208.37v-9.75684v0c0 -11.1504 0.697266 -21.6035 2.09082 -31.3594h197.22l-15.332 -36.2383h-173.525v0
c6.04004 -18.1191 14.1699 -35.0771 24.3916 -50.873c10.2207 -15.7959 22.2998 -29.3857 36.2383 -40.7686c13.9375 -11.3818 29.3848 -20.3252 46.3428 -26.8301c16.958 -6.50391 34.9609 -9.75586 54.0088 -9.75586c13.0088 0 26.3662 1.62598 40.0713 4.87793
s26.8301 8.47852 39.374 15.6797s24.2754 16.2607 35.1934 27.1787s19.8613 24.043 26.8301 39.374l52.2666 -28.5723v0c-7.89844 -18.583 -18.9326 -34.96 -33.1025 -49.1309c-14.1699 -14.1699 -30.1982 -26.1328 -48.085 -35.8896
c-17.8867 -9.75586 -36.8193 -17.1895 -56.7969 -22.2998c-19.9775 -5.11133 -39.4902 -7.66602 -58.5381 -7.66602z" />
    <glyph glyph-name="currency-gbp" unicode="&#xf225;" 
d="M323.317 -58.8799c-10.5391 0 -20.5059 0.916016 -29.8994 2.74902s-18.9014 3.78027 -28.5244 5.84277c-9.62305 2.06152 -19.3604 4.00977 -29.2119 5.8418c-9.85254 1.83301 -20.0479 2.75 -30.5869 2.75c-11.4561 0 -24.2861 -1.14551 -38.4912 -3.43652
s-27.4941 -5.26953 -39.8662 -8.93555l-15.1211 43.9893v0c29.3262 27.9521 50.29 52.6963 62.8916 74.2334s18.9023 43.5312 18.9023 65.9854c0 10.9971 -1.375 21.7656 -4.12402 32.3047h-77.6699v46.7393h59.7988v0c-4.58301 9.62305 -9.39355 19.0166 -14.4346 28.1807
c-5.04004 9.16504 -9.7373 18.3291 -14.0908 27.4941c-4.35254 9.16406 -7.9043 18.6729 -10.6533 28.5244c-2.74902 9.85254 -4.12402 20.0479 -4.12402 30.5869c0 16.4961 3.43652 31.9619 10.3096 46.3955c6.87402 14.4346 16.1533 27.0352 27.8379 37.8037
s25.4316 19.2461 41.2402 25.4316c15.8096 6.18652 32.6494 9.2793 50.5195 9.2793c26.1191 0 50.6348 -6.41504 73.5459 -19.2451c22.9111 -12.8311 41.6992 -30.4727 56.3623 -52.9258l-33.6797 -37.1162v0c-10.998 17.8711 -25.4316 32.1904 -43.3027 42.959
c-17.8711 10.7676 -35.9707 16.1523 -54.2998 16.1523c-10.5391 0 -20.1621 -1.94727 -28.8682 -5.84277c-8.70703 -3.89453 -16.3818 -9.0498 -23.0264 -15.4648s-11.7998 -14.2051 -15.4648 -23.3701c-3.66602 -9.16406 -5.49902 -18.7871 -5.49902 -28.8682
c0 -9.16406 1.48926 -18.2148 4.46777 -27.1494c2.97852 -8.93555 6.64453 -17.8711 10.9971 -26.8066c4.35352 -8.93555 9.16504 -17.9854 14.4346 -27.1504c5.26953 -9.16406 10.1953 -18.7871 14.7773 -28.8682h123.034v-46.7393h-107.912v0
c0.916016 -5.04102 1.60352 -9.9668 2.06152 -14.7783c0.458984 -4.81055 0.6875 -9.7373 0.6875 -14.7773c0 -22.4531 -5.04004 -43.7607 -15.1211 -63.9229s-27.4941 -43.5322 -52.2383 -70.1094c16.9541 4.58301 33.9092 6.87402 50.8633 6.87402
c18.3291 0 34.9404 -2.0625 49.832 -6.18652c14.8926 -4.12402 30.3584 -6.18555 46.3955 -6.18555c9.16504 0 18.2148 1.03027 27.1504 3.09277c8.93555 2.06152 19.3604 5.15527 31.2744 9.2793l15.1211 -46.0518v0c-11.9141 -5.95703 -24.4004 -10.54 -37.46 -13.7471
c-13.0596 -3.20801 -26.0049 -4.81152 -38.835 -4.81152z" />
    <glyph glyph-name="currency-inr" unicode="&#xf226;" 
d="M350.626 -58.8799h-72.084l-149.821 236.746h54.417v0c13.1914 0 25.0879 2.82617 35.6885 8.48047c10.6006 5.65332 19.6699 13.3096 27.208 22.9678s13.4268 20.8477 17.667 33.5684s6.36035 25.9121 6.36035 39.5752c0 12.25 -2.35547 24.9707 -7.06641 38.1621
h-155.476v36.749h133.567v0c-8.00879 8.95117 -17.4316 16.0186 -28.2676 21.2012c-10.8369 5.18164 -22.1436 7.77344 -33.9219 7.77344h-71.3779v56.5361h296.816v-36.748h-127.207v0c8.00977 -7.06738 15.1943 -14.6055 21.5547 -22.6152
c6.36035 -8.00879 11.8965 -16.7246 16.6074 -26.1475h89.0449v-36.749h-74.9111v0c1.41406 -6.5957 2.5918 -12.9561 3.53418 -19.0811s1.41309 -12.4854 1.41309 -19.0811c0 -17.4316 -2.47363 -34.2754 -7.41992 -50.5293
c-4.94727 -16.2539 -12.0146 -30.9775 -21.2012 -44.1689c-9.1875 -13.1914 -20.2598 -24.499 -33.2158 -33.9219s-27.4434 -16.2539 -43.4619 -20.4941z" />
    <glyph glyph-name="currency-jpy" unicode="&#xf227;" 
d="M286.792 -58.8799h-63.6035v120.847h-103.886v42.4023h103.886v21.2002l-22.6143 39.5762h-81.2715v42.4023h58.6572l-144.168 235.332h69.2568l151.941 -261.48l153.355 261.48h69.9629l-144.167 -235.332h57.2432v-42.4023h-80.5645l-24.0283 -40.9893v-19.7871
h105.299v-42.4023h-105.299v-120.847z" />
    <glyph glyph-name="currency-usd" unicode="&#xf228;" 
d="M270.782 -58.8799h-23.9453v54.9648v0c-52.9688 3.26562 -99.4082 21.2246 -139.317 53.877l23.4014 41.3594v0c5.44238 -5.44238 12.1543 -10.9746 20.1357 -16.5986c7.98145 -5.62305 17.1426 -10.793 27.4824 -15.5098
c10.3398 -4.71582 21.4961 -8.79785 33.4688 -12.2441c11.9727 -3.44727 24.4893 -5.71484 37.5508 -6.80273v130.065l-8.16309 2.17676v0c-19.5918 4.7168 -36.8252 9.7959 -51.7002 15.2383s-27.3008 11.9727 -37.2783 19.5918
c-9.97656 7.61816 -17.5049 16.8701 -22.584 27.7539c-5.08008 10.8848 -7.61914 23.9453 -7.61914 39.1836c0 17.4141 3.08398 32.9238 9.25098 46.5293c6.16797 13.6055 14.7842 25.2148 25.8506 34.8291c11.0654 9.61426 24.2168 17.1426 39.4551 22.585
c15.2373 5.44238 31.9268 8.70703 50.0664 9.7959v54.9648h23.9453v-54.9648v0c23.9453 -1.08887 45.623 -5.44238 65.0332 -13.0615c19.4102 -7.61816 36.7344 -17.7773 51.9717 -30.4756l-22.8564 -39.7266v0c-4.35352 4.71582 -9.7959 9.3418 -16.3262 13.877
s-14.0586 8.70703 -22.585 12.5166c-8.52539 3.80957 -17.6865 6.89355 -27.4824 9.25195s-20.1357 3.71875 -31.0195 4.08105v-128.977l7.07422 -1.63281v0c19.9541 -4.35352 38.0039 -9.34277 54.1484 -14.9658c16.1455 -5.62402 29.9316 -12.6074 41.3604 -20.9521
s20.1357 -18.5029 26.1221 -30.4756s8.97949 -26.666 8.97949 -44.0811c0 -18.1406 -3.44727 -33.9219 -10.3398 -47.3457c-6.89355 -13.4238 -16.3262 -24.4893 -28.2988 -33.1973c-11.9727 -8.70703 -26.2129 -15.3281 -42.7207 -19.8633
s-34.1943 -6.98438 -53.0605 -7.34668v-54.4209zM249.559 219.21v125.168v0c-26.4854 -1.45117 -45.8955 -7.61816 -58.2305 -18.5029c-12.335 -10.8838 -18.5029 -25.5771 -18.5029 -44.0811c0 -9.06934 1.54199 -16.8701 4.62598 -23.4004
c3.08301 -6.53027 7.70898 -12.1543 13.877 -16.8701c6.16797 -4.7168 14.1494 -8.79883 23.9453 -12.2451s21.2236 -6.80273 34.2852 -10.0684zM267.518 39.6221v0c27.21 0 48.2529 4.89746 63.1279 14.6934s22.3125 24.4893 22.3125 44.0811
c0 9.43262 -1.90527 17.5049 -5.71387 24.2168c-3.80957 6.71191 -9.34277 12.6982 -16.5986 17.959s-16.1445 9.88672 -26.666 13.877c-10.5215 3.99121 -22.6758 7.80078 -36.4619 11.4287v-126.256z" />
    <glyph glyph-name="cut" unicode="&#xf216;" 
d="M512.064 370.17l7.24023 -7.24023l-305.762 -305.765c2.58789 -29.1514 -7.27539 -59.2012 -29.5889 -81.5146c-39.9893 -39.9893 -104.825 -39.9893 -144.815 0c-39.9893 39.9902 -39.9893 104.826 0 144.815c25.0098 25.0098 59.7373 34.3789 92.0283 28.1064
l221.601 221.598c43.9883 43.9893 115.308 43.9893 159.297 0zM360.371 181.031l158.934 -158.937l-7.24023 -7.24121c-43.5488 -43.5488 -113.885 -43.9834 -157.97 -1.30566l-1.32715 1.30566l-79.2871 79.2871l21.7236 21.7227l79.2852 -79.2871l0.810547 -0.799805
c26.6113 -25.8955 66.4678 -30.1074 97.3877 -12.6357l0.93457 0.536133l0.411133 0.244141l-135.386 135.387zM75.3428 84.2627c-19.9951 -19.9951 -19.9951 -52.4131 0 -72.4082s52.4131 -19.9951 72.4072 0c19.9951 19.9951 19.9951 52.4131 0 72.4082
c-19.9941 19.9941 -52.4121 19.9941 -72.4072 0zM375.3 349.247l-0.810547 -0.799805l-186.812 -186.811l43.4443 -43.4453l242.912 242.912l-0.411133 0.243164c-31.0479 18.0908 -71.4424 14.0576 -98.3223 -12.0996zM261.12 211.456
c8.4834 0 15.3604 -6.87695 15.3604 -15.3604c0 -8.48242 -6.87695 -15.3594 -15.3604 -15.3594s-15.3604 6.87695 -15.3604 15.3594c0 8.4834 6.87695 15.3604 15.3604 15.3604zM183.954 409.373c22.0908 -22.0898 31.9785 -51.7627 29.6631 -80.6396l-0.0742188 -0.875
l38.2168 -38.2158l-86.8916 -86.8916l-33.7012 33.7012c-31.9678 -6.20996 -66.3242 2.91016 -91.2754 27.3604l-0.75293 0.745117c-39.9893 39.9902 -39.9893 104.826 0 144.815c39.9902 39.9902 104.826 39.9902 144.815 0zM75.3428 373.169
c-19.9951 -19.9941 -19.9951 -52.4121 0 -72.4072s52.4131 -19.9951 72.4072 0c19.9951 19.9951 19.9951 52.4131 0 72.4072c-19.9941 19.9951 -52.4121 19.9951 -72.4072 0z" />
    <glyph glyph-name="desktop" unicode="&#xf116;" 
d="M5.12012 314.878c0 28.2783 22.9248 51.2021 51.1934 51.2021h399.373c28.2734 0 51.1934 -22.9326 51.1934 -51.2021v-204.796c0 -28.2783 -22.9248 -51.2021 -51.1934 -51.2021h-399.373c-28.2734 0 -51.1934 22.9326 -51.1934 51.2021v204.796zM35.8398 314.878
v-204.796c0 -11.3076 9.17188 -20.4824 20.4736 -20.4824h399.373c11.3027 0 20.4736 9.17188 20.4736 20.4824v204.796c0 11.3076 -9.17188 20.4824 -20.4736 20.4824h-399.373c-11.3027 0 -20.4736 -9.17188 -20.4736 -20.4824zM128 -23.04
c0 8.4834 6.88086 15.3604 15.3662 15.3604h225.268c8.48633 0 15.3662 -6.875 15.3662 -15.3604v0c0 -8.4834 -6.88086 -15.3604 -15.3662 -15.3604h-225.268c-8.48633 0 -15.3662 6.875 -15.3662 15.3604v0zM240.64 64.002v-71.6836
c0 -8.48047 6.87695 -15.3584 15.3604 -15.3584v0c8.48535 0 15.3604 6.87598 15.3604 15.3584v71.6836c0 8.48047 -6.87695 15.3584 -15.3604 15.3584v0c-8.48535 0 -15.3604 -6.87598 -15.3604 -15.3584z" />
    <glyph glyph-name="document" unicode="&#xf117;" 
d="M389.13 422.4c27.9922 0 50.7314 -22.4668 51.1836 -50.3525l0.00683594 -0.84668v-307.201l-102.4 -102.4h-215.05c-27.9922 0 -50.7314 22.4668 -51.1836 50.3525l-0.00683594 0.84668v358.402c0 27.9863 22.4629 50.7393 50.3438 51.1924l0.84668 0.00683594h266.26z
M389.13 391.68h-266.612c-11.0195 -0.188477 -19.9268 -9.09668 -20.1143 -20.1221l-0.00292969 -0.356445v-358.755c0.188477 -11.0312 9.08887 -19.9355 20.1133 -20.123l0.356445 -0.00292969h202.324l84.4053 84.4053v294.828
c-0.19043 11.1504 -9.28125 20.126 -20.4697 20.126zM403.456 94.7197l-92.1602 -92.1602v92.1602h92.1602zM245.76 166.4c5.65527 0 10.2402 -4.58496 10.2402 -10.2402s-4.58496 -10.2402 -10.2402 -10.2402h-107.52c-5.65527 0 -10.2402 4.58496 -10.2402 10.2402
s4.58496 10.2402 10.2402 10.2402h107.52zM373.76 207.36c5.65527 0 10.2402 -4.58496 10.2402 -10.2402s-4.58496 -10.2402 -10.2402 -10.2402h-235.52c-5.65527 0 -10.2402 4.58496 -10.2402 10.2402s4.58496 10.2402 10.2402 10.2402h235.52zM373.76 248.32
c5.65527 0 10.2402 -4.58496 10.2402 -10.2402s-4.58496 -10.2402 -10.2402 -10.2402h-235.52c-5.65527 0 -10.2402 4.58496 -10.2402 10.2402s4.58496 10.2402 10.2402 10.2402h235.52zM215.04 371.2c8.4834 0 15.3604 -6.87695 15.3604 -15.3604v-71.6797
c0 -8.4834 -6.87695 -15.3604 -15.3604 -15.3604h-71.6797c-8.4834 0 -15.3604 6.87695 -15.3604 15.3604v71.6797c0 8.4834 6.87695 15.3604 15.3604 15.3604h71.6797z" />
    <glyph glyph-name="double-check" unicode="&#xf1db;" 
d="M394.258 325.741c5.99902 -5.99805 5.99902 -15.7236 0 -21.7227l-249.807 -249.807l-119.473 119.473c-5.99805 5.99902 -5.99805 15.7246 0 21.7227c5.99902 5.99805 15.7246 5.99805 21.7227 0l97.75 -97.75l228.085 228.084
c5.99805 5.99805 15.7236 5.99805 21.7217 0zM178.619 155.649l-21.7227 -21.7217l-39.7578 39.7568c-5.99805 5.99902 -5.99805 15.7246 0 21.7227c5.99902 5.99805 15.7236 5.99805 21.7227 0zM486.418 325.741c5.99902 -5.99805 5.99902 -15.7236 0 -21.7227
l-249.807 -249.807l-36.2705 36.2705l21.7227 21.7227l14.5479 -14.5479l228.085 228.084c5.99805 5.99805 15.7236 5.99805 21.7217 0z" />
    <glyph glyph-name="download" unicode="&#xf118;" 
d="M35.8398 156.16v-163.84c0 -11.1934 8.97949 -20.2891 20.127 -20.4775l0.353516 -0.00292969h399.359c11.1934 0 20.2891 8.97949 20.4805 20.127v164.193h30.7197v-163.84c0 -28.2773 -22.9229 -51.2002 -51.2002 -51.2002h-399.359
c-28.2773 0 -51.2002 22.9229 -51.2002 51.2002v163.84h30.7197zM255.42 442.88c16.7969 0 30.4453 -13.4805 30.7168 -30.2119l0.00390625 -0.507812v-299.662l56.2363 56.2363c11.877 11.877 31.0596 11.9951 43.083 0.355469l0.362305 -0.355469
c11.877 -11.877 11.9951 -31.0596 0.356445 -43.083l-0.356445 -0.362305l-108.612 -108.611c-11.877 -11.877 -31.0596 -11.9961 -43.082 -0.356445l-0.362305 0.356445l-108.611 108.611c-11.9971 11.9971 -11.9971 31.4482 0 43.4453
c11.877 11.877 31.0596 11.9951 43.082 0.355469l0.362305 -0.355469l56.1016 -56.1016v299.527c0 16.9658 13.7539 30.7197 30.7197 30.7197z" />
    <glyph glyph-name="ellipsis" unicode="&#xf119;" 
d="M256 84.4805c28.2773 0 51.2002 -22.9238 51.2002 -51.2002c0 -28.2773 -22.9229 -51.2002 -51.2002 -51.2002s-51.2002 22.9229 -51.2002 51.2002c0 28.2764 22.9229 51.2002 51.2002 51.2002zM256 243.2c28.2773 0 51.2002 -22.9229 51.2002 -51.2002
s-22.9229 -51.2002 -51.2002 -51.2002s-51.2002 22.9229 -51.2002 51.2002s22.9229 51.2002 51.2002 51.2002zM256 401.92c28.2773 0 51.2002 -22.9229 51.2002 -51.2002c0 -28.2764 -22.9229 -51.2002 -51.2002 -51.2002s-51.2002 22.9238 -51.2002 51.2002
c0 28.2773 22.9229 51.2002 51.2002 51.2002z" />
    <glyph glyph-name="ellipsis-h" unicode="&#xf11a;" 
d="M148.48 192c0 -28.2773 -22.9238 -51.2002 -51.2002 -51.2002c-28.2773 0 -51.2002 22.9229 -51.2002 51.2002s22.9229 51.2002 51.2002 51.2002c28.2764 0 51.2002 -22.9229 51.2002 -51.2002zM307.2 192c0 -28.2773 -22.9229 -51.2002 -51.2002 -51.2002
s-51.2002 22.9229 -51.2002 51.2002s22.9229 51.2002 51.2002 51.2002s51.2002 -22.9229 51.2002 -51.2002zM465.92 192c0 -28.2773 -22.9229 -51.2002 -51.2002 -51.2002c-28.2764 0 -51.2002 22.9229 -51.2002 51.2002s22.9238 51.2002 51.2002 51.2002
c28.2773 0 51.2002 -22.9229 51.2002 -51.2002z" />
    <glyph glyph-name="ext-avi" unicode="&#xf11b;" 
d="M455.68 360.96c28.2773 0 51.2002 -22.9229 51.2002 -51.2002v-235.52c0 -28.2773 -22.9229 -51.2002 -51.2002 -51.2002h-56.3193l-61.4404 -61.4404h-215.05c-27.9922 0 -50.7314 22.4668 -51.1836 50.3525l-0.00683594 0.84668v10.2412h-15.3594
c-28.2773 0 -51.2002 22.9229 -51.2002 51.2002v235.52c0 28.2773 22.9229 51.2002 51.2002 51.2002h399.359zM355.915 23.04h-253.515v-10.5938c0.188477 -11.0312 9.08887 -19.9355 20.1133 -20.123l0.356445 -0.00292969h202.324zM455.68 330.24h-399.359
c-11.1934 0 -20.2891 -8.97949 -20.4805 -20.1279v-235.872c0 -11.1934 8.97949 -20.2891 20.127 -20.4775l0.353516 -0.00292969h399.359c11.1934 0 20.2891 8.97949 20.4805 20.1279v235.872c0 11.1934 -8.97949 20.2891 -20.127 20.4775zM187.494 268.8l59.2129 -153.677
h-35.7119l-9.67676 26.4961h-68.6592l-9.67676 -26.4961h-35.9424l59.4434 153.677h41.0107zM263.449 268.8l42.624 -118.195l42.3936 118.195h37.3252l-59.2129 -153.677h-41.0107l-59.4434 153.677h37.3242zM425.113 268.8v-153.677h-32.7168v153.677h32.7168z
M166.989 240.461l-25.5752 -70.5029h50.9189zM389.13 422.4c26.5479 0 48.3701 -20.208 50.9375 -46.0811h-31.1104c-2.24219 8.71387 -10.0693 15.1816 -19.4355 15.3574l-0.391602 0.00292969h-266.612c-9.37891 -0.161133 -17.2275 -6.6377 -19.4727 -15.3604h-31.1123
c2.54297 25.6084 23.959 45.6758 50.1426 46.0742l0.794922 0.00683594h266.26z" />
    <glyph glyph-name="ext-bmp" unicode="&#xf11c;" 
d="M455.68 360.96c28.2773 0 51.2002 -22.9229 51.2002 -51.2002v-235.52c0 -28.2773 -22.9229 -51.2002 -51.2002 -51.2002h-56.3193l-61.4404 -61.4404h-215.05c-27.9922 0 -50.7314 22.4668 -51.1836 50.3525l-0.00683594 0.84668v10.2412h-15.3594
c-28.2773 0 -51.2002 22.9229 -51.2002 51.2002v235.52c0 28.2773 22.9229 51.2002 51.2002 51.2002h399.359zM355.915 23.04h-253.515v-10.5938c0.188477 -11.0312 9.08887 -19.9355 20.1133 -20.123l0.356445 -0.00292969h202.324zM455.68 330.24h-399.359
c-11.1934 0 -20.2891 -8.97949 -20.4805 -20.1279v-235.872c0 -11.1934 8.97949 -20.2891 20.127 -20.4775l0.353516 -0.00292969h399.359c11.1934 0 20.2891 8.97949 20.4805 20.1279v235.872c0 11.1934 -8.97949 20.2891 -20.127 20.4775zM124.108 260.608
c26.0098 0 39.3223 -16.5889 39.3223 -34.8164c0 -17.2031 -10.6494 -28.6719 -23.5527 -31.334c14.541 -2.25293 26.2148 -16.3848 26.2148 -33.5879c0 -20.2754 -13.4482 -36.5352 -38.9541 -36.8584l-0.777344 -0.00488281h-74.1377v136.602h71.8848zM221.935 260.608
l33.1777 -85.1973l33.1777 85.1973h40.96v-136.602h-29.2861v98.3037l-38.5029 -98.3037h-12.6973l-38.502 98.3037v-98.3037h-29.082v136.602h40.7549zM413.354 260.608c29.6963 0 45.875 -20.0703 45.875 -44.0322c0 -23.5195 -16.0576 -43.2246 -44.9941 -43.6162
l-0.880859 -0.00683594h-34.8154v-48.9463h-29.082v136.602h63.8975zM118.784 180.94h-37.4785v-32.1533h37.4785c11.0586 0 17.6123 6.34863 17.6123 16.1797c0 8.5 -6 15.8008 -17.21 15.9707zM409.464 235.622h-30.9248v-37.6826h30.9248
c11.4688 0 20.0703 7.37207 20.0703 18.8418c0 11.1426 -8.41797 18.6777 -19.7021 18.8389zM117.76 235.827h-36.4541v-30.1055h36.4541c9.83105 0 15.9746 6.34863 15.9746 15.1553c0 8.29004 -5.98926 14.7842 -15.6025 14.9473zM389.13 422.4
c26.5479 0 48.3701 -20.208 50.9375 -46.0811h-31.1104c-2.24219 8.71387 -10.0693 15.1816 -19.4355 15.3574l-0.391602 0.00292969h-266.612c-9.37891 -0.161133 -17.2275 -6.6377 -19.4727 -15.3604h-31.1123c2.54297 25.6084 23.959 45.6758 50.1426 46.0742
l0.794922 0.00683594h266.26z" />
    <glyph glyph-name="ext-cpp" unicode="&#xf11d;" 
d="M455.68 360.96c28.2773 0 51.2002 -22.9229 51.2002 -51.2002v-235.52c0 -28.2773 -22.9229 -51.2002 -51.2002 -51.2002h-56.3193l-61.4404 -61.4404h-215.05c-27.9922 0 -50.7314 22.4668 -51.1836 50.3525l-0.00683594 0.84668v10.2412h-15.3594
c-28.2773 0 -51.2002 22.9229 -51.2002 51.2002v235.52c0 28.2773 22.9229 51.2002 51.2002 51.2002h399.359zM355.915 23.04h-253.515v-10.5938c0.188477 -11.0312 9.08887 -19.9355 20.1133 -20.123l0.356445 -0.00292969h202.324zM455.68 330.24h-399.359
c-11.1934 0 -20.2891 -8.97949 -20.4805 -20.1279v-235.872c0 -11.1934 8.97949 -20.2891 20.127 -20.4775l0.353516 -0.00292969h399.359c11.1934 0 20.2891 8.97949 20.4805 20.1279v235.872c0 11.1934 -8.97949 20.2891 -20.127 20.4775zM157.44 271.872
c34.6699 0 54.2109 -18.0654 65.1055 -36.9814l0.328125 -0.574219l-28.1094 -13.8232c-6.45117 12.4414 -20.2754 22.3486 -37.3242 22.3486c-26.7266 0 -47.002 -21.4277 -47.002 -50.458s20.2754 -50.457 47.002 -50.457c16.8701 0 30.582 9.47363 37.1182 21.9492
l0.206055 0.399414l28.1094 -13.5938c-11.0596 -19.123 -30.4131 -37.7852 -65.4336 -37.7852c-44.9287 0 -80.6406 32.2559 -80.6406 79.4873c0 47.2324 35.7119 79.4883 80.6406 79.4883zM284.774 247.449v-44.9277h41.2412v-18.2012h-41.2412v-46.7715h-20.0449v46.7715
h-41.4717v18.2012h41.4717v44.9277h20.0449zM393.216 247.449v-44.9277h41.2422v-18.2012h-41.2422v-46.7715h-20.0449v46.7715h-41.4717v18.2012h41.4717v44.9277h20.0449zM389.13 422.4c26.5479 0 48.3701 -20.208 50.9375 -46.0811h-31.1104
c-2.24219 8.71387 -10.0693 15.1816 -19.4355 15.3574l-0.391602 0.00292969h-266.612c-9.37891 -0.161133 -17.2275 -6.6377 -19.4727 -15.3604h-31.1123c2.54297 25.6084 23.959 45.6758 50.1426 46.0742l0.794922 0.00683594h266.26z" />
    <glyph glyph-name="ext-css" unicode="&#xf11e;" 
d="M455.68 360.96c28.2773 0 51.2002 -22.9229 51.2002 -51.2002v-235.52c0 -28.2773 -22.9229 -51.2002 -51.2002 -51.2002h-56.3193l-61.4404 -61.4404h-215.05c-27.9922 0 -50.7314 22.4668 -51.1836 50.3525l-0.00683594 0.84668v10.2412h-15.3594
c-28.2773 0 -51.2002 22.9229 -51.2002 51.2002v235.52c0 28.2773 22.9229 51.2002 51.2002 51.2002h399.359zM355.915 23.04h-253.515v-10.5938c0.188477 -11.0312 9.08887 -19.9355 20.1133 -20.123l0.356445 -0.00292969h202.324zM455.68 330.24h-399.359
c-11.1934 0 -20.2891 -8.97949 -20.4805 -20.1279v-235.872c0 -11.1934 8.97949 -20.2891 20.127 -20.4775l0.353516 -0.00292969h399.359c11.1934 0 20.2891 8.97949 20.4805 20.1279v235.872c0 11.1934 -8.97949 20.2891 -20.127 20.4775zM147.456 262.656
c30.8184 0 48.1885 -16.0586 57.8721 -32.873l0.291016 -0.509766l-24.9854 -12.2881c-5.73438 11.0596 -18.0225 19.8662 -33.1777 19.8662c-23.7568 0 -41.7793 -19.0469 -41.7793 -44.8516s18.0225 -44.8516 41.7793 -44.8516c14.9844 0 27.167 8.41016 32.9814 19.4873
l0.196289 0.378906l24.9854 -12.083l-0.598633 -1.01953c-9.92578 -16.6357 -27.0576 -32.5684 -57.5645 -32.5684c-39.9365 0 -71.6797 28.6719 -71.6797 70.6562s31.7432 70.6562 71.6797 70.6562zM263.1 262.451c21.4473 0 39.2969 -6.39648 52.7578 -18.5977
l0.490234 -0.448242l-16.1787 -21.2998c-11.0596 10.2402 -25.8057 14.9502 -39.1172 14.9502c-13.1074 0 -20.0703 -5.73438 -20.0703 -13.9258c0 -9.21582 11.4688 -12.083 27.2383 -15.7695l2.04297 -0.46582c22.1797 -5.08105 49.1572 -12.3223 49.1572 -41.7236
c0 -24.9854 -17.8174 -43.8271 -54.6816 -43.8271c-25.9473 0 -44.6709 8.62793 -57.5615 21.3154l-0.397461 0.393555l15.9746 22.1182c9.62598 -10.0352 24.5762 -18.4316 43.418 -18.4316c15.9746 0 23.7568 7.57715 23.7568 15.3604
c0 10.1367 -11.6426 13.6514 -27.1758 17.2969l-4.55176 1.04883c-21.5811 5.00684 -46.916 12.1572 -46.916 40.8408c0 22.7334 19.6611 41.165 51.8145 41.165zM379.153 262.451c21.4473 0 39.2959 -6.39648 52.7568 -18.5977l0.491211 -0.448242l-16.1797 -21.2998
c-11.0586 10.2402 -25.8047 14.9502 -39.1162 14.9502c-13.1074 0 -20.0713 -5.73438 -20.0713 -13.9258c0 -9.21582 11.4697 -12.083 27.2393 -15.7695l2.04297 -0.46582c22.1787 -5.08105 49.1562 -12.3223 49.1562 -41.7236
c0 -24.9854 -17.8174 -43.8271 -54.6816 -43.8271c-25.9463 0 -44.6699 8.62793 -57.5615 21.3154l-0.396484 0.393555l15.9746 22.1182c9.625 -10.0352 24.5762 -18.4316 43.417 -18.4316c15.9746 0 23.7568 7.57715 23.7568 15.3604
c0 10.1367 -11.6416 13.6514 -27.1758 17.2969l-4.55078 1.04883c-21.582 5.00684 -46.916 12.1572 -46.916 40.8408c0 22.7334 19.6602 41.165 51.8145 41.165zM389.13 422.4c26.5479 0 48.3701 -20.208 50.9375 -46.0811h-31.1104
c-2.24219 8.71387 -10.0693 15.1816 -19.4355 15.3574l-0.391602 0.00292969h-266.612c-9.37891 -0.161133 -17.2275 -6.6377 -19.4727 -15.3604h-31.1123c2.54297 25.6084 23.959 45.6758 50.1426 46.0742l0.794922 0.00683594h266.26z" />
    <glyph glyph-name="ext-doc" unicode="&#xf11f;" 
d="M455.68 360.96c28.2773 0 51.2002 -22.9229 51.2002 -51.2002v-235.52c0 -28.2773 -22.9229 -51.2002 -51.2002 -51.2002h-56.3193l-61.4404 -61.4404h-215.05c-27.9922 0 -50.7314 22.4668 -51.1836 50.3525l-0.00683594 0.84668v10.2412h-15.3594
c-28.2773 0 -51.2002 22.9229 -51.2002 51.2002v235.52c0 28.2773 22.9229 51.2002 51.2002 51.2002h399.359zM355.915 23.04h-253.515v-10.5938c0.188477 -11.0312 9.08887 -19.9355 20.1133 -20.123l0.356445 -0.00292969h202.324zM455.68 330.24h-399.359
c-11.1934 0 -20.2891 -8.97949 -20.4805 -20.1279v-235.872c0 -11.1934 8.97949 -20.2891 20.127 -20.4775l0.353516 -0.00292969h399.359c11.1934 0 20.2891 8.97949 20.4805 20.1279v235.872c0 11.1934 -8.97949 20.2891 -20.127 20.4775zM254.089 262.656
c41.3691 0 71.4746 -29.4912 71.4746 -70.6562s-30.1055 -70.6562 -71.4746 -70.6562c-41.165 0 -71.2705 29.4912 -71.2705 70.6562s30.1055 70.6562 71.2705 70.6562zM404.344 262.656c30.8184 0 48.1875 -16.0586 57.8721 -32.873l0.291016 -0.509766l-24.9854 -12.2881
c-5.73438 11.0596 -18.0225 19.8662 -33.1777 19.8662c-23.7568 0 -41.7793 -19.0469 -41.7793 -44.8516s18.0225 -44.8516 41.7793 -44.8516c14.9844 0 27.166 8.41016 32.9814 19.4873l0.196289 0.378906l24.9854 -12.083
c-9.83105 -16.999 -27.0342 -33.5879 -58.1631 -33.5879c-39.9365 0 -71.6807 28.6719 -71.6807 70.6562s31.7441 70.6562 71.6807 70.6562zM103.015 260.403c42.8027 0 72.499 -27.2383 72.499 -68.4033c0 -40.7529 -29.1055 -67.6562 -71.2188 -68.1904
l-1.28027 -0.0078125h-53.8623v136.602h53.8623zM254.089 236.852c-25.1904 0 -41.3701 -19.252 -41.3701 -44.8516c0 -25.3955 16.1797 -44.8516 41.3701 -44.8516s41.5742 19.4561 41.5742 44.8516c0 25.5996 -16.3838 44.8516 -41.5742 44.8516zM103.015 234.803
h-24.7812v-85.4014h24.7812c27.0332 0 42.8027 19.4561 42.8027 42.5986c0 23.9248 -14.4521 42.4297 -41.9648 42.7979zM389.13 422.4c26.5479 0 48.3701 -20.208 50.9375 -46.0811h-31.1104c-2.24219 8.71387 -10.0693 15.1816 -19.4355 15.3574l-0.391602 0.00292969
h-266.612c-9.37891 -0.161133 -17.2275 -6.6377 -19.4727 -15.3604h-31.1123c2.54297 25.6084 23.959 45.6758 50.1426 46.0742l0.794922 0.00683594h266.26z" />
    <glyph glyph-name="ext-gif" unicode="&#xf120;" 
d="M455.68 360.96c28.2773 0 51.2002 -22.9229 51.2002 -51.2002v-235.52c0 -28.2773 -22.9229 -51.2002 -51.2002 -51.2002h-56.3193l-61.4404 -61.4404h-215.05c-27.9922 0 -50.7314 22.4668 -51.1836 50.3525l-0.00683594 0.84668v10.2412h-15.3594
c-28.2773 0 -51.2002 22.9229 -51.2002 51.2002v235.52c0 28.2773 22.9229 51.2002 51.2002 51.2002h399.359zM355.915 23.04h-253.515v-10.5938c0.188477 -11.0312 9.08887 -19.9355 20.1133 -20.123l0.356445 -0.00292969h202.324zM455.68 330.24h-399.359
c-11.1934 0 -20.2891 -8.97949 -20.4805 -20.1279v-235.872c0 -11.1934 8.97949 -20.2891 20.127 -20.4775l0.353516 -0.00292969h399.359c11.1934 0 20.2891 8.97949 20.4805 20.1279v235.872c0 11.1934 -8.97949 20.2891 -20.127 20.4775zM172.928 271.872
c31.4775 0 51.4385 -15.1299 63.2354 -33.0938l0.355469 -0.544922l-27.1875 -14.7451c-7.14258 10.8281 -20.2754 19.3535 -36.4033 19.3535c-27.8779 0 -48.1533 -21.4277 -48.1533 -50.458s20.2754 -50.457 48.1533 -50.457c13.8418 0 26.1191 5.58594 32.8701 11.4775
l0.307617 0.272461v18.6621h-41.0107v28.1094h73.2666v-58.752c-15.667 -17.5107 -37.5547 -29.0303 -65.4336 -29.0303c-44.9277 0 -81.792 31.334 -81.792 79.7178c0 48.6143 36.8643 79.4883 81.792 79.4883zM289.434 269.338v-153.677h-32.7168v153.677h32.7168z
M420.915 269.338v-28.1094h-76.0322v-33.4082h74.4199v-28.1084h-74.4199v-64.0508h-32.7168v153.677h108.749zM389.13 422.4c26.5479 0 48.3701 -20.208 50.9375 -46.0811h-31.1104c-2.24219 8.71387 -10.0693 15.1816 -19.4355 15.3574l-0.391602 0.00292969h-266.612
c-9.37891 -0.161133 -17.2275 -6.6377 -19.4727 -15.3604h-31.1123c2.54297 25.6084 23.959 45.6758 50.1426 46.0742l0.794922 0.00683594h266.26z" />
    <glyph glyph-name="ext-html" unicode="&#xf121;" 
d="M455.68 360.96c28.2773 0 51.2002 -22.9229 51.2002 -51.2002v-235.52c0 -28.2773 -22.9229 -51.2002 -51.2002 -51.2002h-56.3193l-61.4404 -61.4404h-215.05c-27.9922 0 -50.7314 22.4668 -51.1836 50.3525l-0.00683594 0.84668v10.2412h-15.3594
c-28.2773 0 -51.2002 22.9229 -51.2002 51.2002v235.52c0 28.2773 22.9229 51.2002 51.2002 51.2002h399.359zM355.915 23.04h-253.515v-10.5938c0.188477 -11.0312 9.08887 -19.9355 20.1133 -20.123l0.356445 -0.00292969h202.324zM455.68 330.24h-399.359
c-11.1934 0 -20.2891 -8.97949 -20.4805 -20.1279v-235.872c0 -11.1934 8.97949 -20.2891 20.127 -20.4775l0.353516 -0.00292969h399.359c11.1934 0 20.2891 8.97949 20.4805 20.1279v235.872c0 11.1934 -8.97949 20.2891 -20.127 20.4775zM86.3232 243.2v-40.2432h48.3838
v40.2432h21.9648v-102.451h-21.9648v43.0078h-48.3838v-43.0078h-21.8115v102.451h21.8115zM247.091 243.2v-19.2002h-29.7979v-83.251h-21.9648v83.251h-29.9521v19.2002h81.7148zM286.516 243.2l24.8828 -63.8975l24.8828 63.8975h30.7207v-102.451h-21.9648v73.7275
l-28.877 -73.7275h-9.52344l-28.877 73.7275v-73.7275h-21.8105v102.451h30.5664zM403.968 243.2v-83.251h43.3154v-19.2002h-65.126v102.451h21.8105zM389.13 422.4c26.5479 0 48.3701 -20.208 50.9375 -46.0811h-31.1104
c-2.24219 8.71387 -10.0693 15.1816 -19.4355 15.3574l-0.391602 0.00292969h-266.612c-9.37891 -0.161133 -17.2275 -6.6377 -19.4727 -15.3604h-31.1123c2.54297 25.6084 23.959 45.6758 50.1426 46.0742l0.794922 0.00683594h266.26z" />
    <glyph glyph-name="ext-java" unicode="&#xf122;" 
d="M455.68 360.96c28.2773 0 51.2002 -22.9229 51.2002 -51.2002v-235.52c0 -28.2773 -22.9229 -51.2002 -51.2002 -51.2002h-56.3193l-61.4404 -61.4404h-215.05c-27.9922 0 -50.7314 22.4668 -51.1836 50.3525l-0.00683594 0.84668v10.2412h-15.3594
c-28.2773 0 -51.2002 22.9229 -51.2002 51.2002v235.52c0 28.2773 22.9229 51.2002 51.2002 51.2002h399.359zM355.915 23.04h-253.515v-10.5938c0.188477 -11.0312 9.08887 -19.9355 20.1133 -20.123l0.356445 -0.00292969h202.324zM455.68 330.24h-399.359
c-11.1934 0 -20.2891 -8.97949 -20.4805 -20.1279v-235.872c0 -11.1934 8.97949 -20.2891 20.127 -20.4775l0.353516 -0.00292969h399.359c11.1934 0 20.2891 8.97949 20.4805 20.1279v235.872c0 11.1934 -8.97949 20.2891 -20.127 20.4775zM119.316 254.464v-82.5752
c0 -29.123 -18.0635 -42.5781 -43.3154 -42.5781c-12.3311 0 -23.7705 3.21191 -32.5625 11.5664l-0.430664 0.415039l11.4277 20.0908l0.582031 -0.551758c4.71582 -4.38867 10.8164 -8.2959 18.9561 -8.2959c11.4873 0 19.0068 7.57617 19.167 19.3369
l0.00195312 0.384766v82.207h26.1738zM198.697 254.464l47.3701 -122.941h-28.5693l-7.74219 21.1973h-54.9268l-7.74219 -21.1973h-28.7539l47.5547 122.941h32.8096zM259.461 254.464l34.0996 -94.5557l33.915 94.5557h29.8594l-47.3701 -122.941h-32.8086
l-47.5547 122.941h29.8594zM421.232 254.464l47.3701 -122.941h-28.5693l-7.74121 21.1973h-54.9277l-7.74121 -21.1973h-28.7539l47.5547 122.941h32.8086zM182.292 231.793l-20.459 -56.4023h40.7344zM404.828 231.793l-20.46 -56.4023h40.7354zM389.13 422.4
c26.5479 0 48.3701 -20.208 50.9375 -46.0811h-31.1104c-2.24219 8.71387 -10.0693 15.1816 -19.4355 15.3574l-0.391602 0.00292969h-266.612c-9.37891 -0.161133 -17.2275 -6.6377 -19.4727 -15.3604h-31.1123c2.54297 25.6084 23.959 45.6758 50.1426 46.0742
l0.794922 0.00683594h266.26z" />
    <glyph glyph-name="ext-jpg" unicode="&#xf123;" 
d="M455.68 360.96c28.2773 0 51.2002 -22.9229 51.2002 -51.2002v-235.52c0 -28.2773 -22.9229 -51.2002 -51.2002 -51.2002h-56.3193l-61.4404 -61.4404h-215.05c-27.9922 0 -50.7314 22.4668 -51.1836 50.3525l-0.00683594 0.84668v10.2412h-15.3594
c-28.2773 0 -51.2002 22.9229 -51.2002 51.2002v235.52c0 28.2773 22.9229 51.2002 51.2002 51.2002h399.359zM355.915 23.04h-253.515v-10.5938c0.188477 -11.0312 9.08887 -19.9355 20.1133 -20.123l0.356445 -0.00292969h202.324zM455.68 330.24h-399.359
c-11.1934 0 -20.2891 -8.97949 -20.4805 -20.1279v-235.872c0 -11.1934 8.97949 -20.2891 20.127 -20.4775l0.353516 -0.00292969h399.359c11.1934 0 20.2891 8.97949 20.4805 20.1279v235.872c0 11.1934 -8.97949 20.2891 -20.127 20.4775zM388.02 271.872
c31.4766 0 51.4375 -15.1299 63.2354 -33.0938l0.354492 -0.544922l-27.1865 -14.7451c-7.14258 10.8281 -20.2754 19.3535 -36.4033 19.3535c-27.8789 0 -48.1543 -21.4277 -48.1543 -50.458s20.2754 -50.457 48.1543 -50.457c13.8408 0 26.1182 5.58594 32.8691 11.4775
l0.308594 0.272461v18.6621h-41.0117v28.1094h73.2676v-58.752c-15.668 -17.5107 -37.5557 -29.0303 -65.4336 -29.0303c-44.9287 0 -81.792 31.334 -81.792 79.7178c0 48.6143 36.8633 79.4883 81.792 79.4883zM154.777 269.338v-103.22
c0 -36.4033 -22.5791 -53.2217 -54.1436 -53.2217c-15.4463 0 -29.7734 4.03027 -40.7725 14.5215l-0.469727 0.454102l14.2852 25.1133c5.99023 -5.75977 13.8242 -11.0586 24.4229 -11.0586c14.3701 0 23.7715 9.4834 23.958 24.2051l0.00292969 0.447266v102.759h32.7168
zM249.396 269.338c33.4072 0 51.6094 -22.5791 51.6094 -49.5361c0 -26.459 -18.0654 -48.6279 -50.6191 -49.0684l-0.990234 -0.00683594h-39.168v-55.0654h-32.7168v153.677h71.8848zM245.018 241.229h-34.79v-42.3936h34.79c12.9023 0 22.5791 8.29492 22.5791 21.1973
c0 12.5449 -9.48438 21.0254 -22.1934 21.1943zM389.13 422.4c26.5479 0 48.3701 -20.208 50.9375 -46.0811h-31.1104c-2.24219 8.71387 -10.0693 15.1816 -19.4355 15.3574l-0.391602 0.00292969h-266.612c-9.37891 -0.161133 -17.2275 -6.6377 -19.4727 -15.3604h-31.1123
c2.54297 25.6084 23.959 45.6758 50.1426 46.0742l0.794922 0.00683594h266.26z" />
    <glyph glyph-name="ext-js" unicode="&#xf124;" 
d="M455.68 360.96c28.2773 0 51.2002 -22.9229 51.2002 -51.2002v-235.52c0 -28.2773 -22.9229 -51.2002 -51.2002 -51.2002h-56.3193l-61.4404 -61.4404h-215.05c-27.9922 0 -50.7314 22.4668 -51.1836 50.3525l-0.00683594 0.84668v10.2412h-15.3594
c-28.2773 0 -51.2002 22.9229 -51.2002 51.2002v235.52c0 28.2773 22.9229 51.2002 51.2002 51.2002h399.359zM355.915 23.04h-253.515v-10.5938c0.188477 -11.0312 9.08887 -19.9355 20.1133 -20.123l0.356445 -0.00292969h202.324zM455.68 330.24h-399.359
c-11.1934 0 -20.2891 -8.97949 -20.4805 -20.1279v-235.872c0 -11.1934 8.97949 -20.2891 20.127 -20.4775l0.353516 -0.00292969h399.359c11.1934 0 20.2891 8.97949 20.4805 20.1279v235.872c0 11.1934 -8.97949 20.2891 -20.127 20.4775zM234.649 269.568v-103.22
c0 -36.4033 -22.5791 -53.2227 -54.1436 -53.2227c-15.4473 0 -29.7734 4.03125 -40.7725 14.5225l-0.469727 0.454102l14.2852 25.1133l0.637695 -0.604492c5.90625 -5.52051 13.5586 -10.4541 23.7852 -10.4541c14.3691 0 23.7715 9.4834 23.958 24.2051
l0.00292969 0.447266v102.759h32.7168zM310.144 271.872c24.1484 0 44.2422 -7.20801 59.3896 -20.9561l0.514648 -0.47168l-18.2012 -23.9609c-12.4414 11.5195 -29.0303 16.8193 -44.0068 16.8193c-14.7451 0 -22.5791 -6.45117 -22.5791 -15.668
c0 -10.3672 12.9023 -13.5928 30.6436 -17.7402l2.29785 -0.524414c24.9521 -5.71582 55.3018 -13.8623 55.3018 -46.9385c0 -28.1084 -20.0449 -49.3057 -61.5166 -49.3057c-29.1963 0 -50.2637 9.71094 -64.7656 23.9883l-0.4375 0.43457l17.9707 24.8828
c10.8291 -11.2891 27.6484 -20.7354 48.8447 -20.7354c17.9717 0 26.7266 8.52441 26.7266 17.2793c0 11.29 -12.834 15.2773 -30.0449 19.3359l-1.05859 0.248047c-25.1143 5.76074 -57.3701 12.6729 -57.3701 47.002c0 25.5742 22.1191 46.3105 58.291 46.3105z
M389.13 422.4c26.5479 0 48.3701 -20.208 50.9375 -46.0811h-31.1104c-2.24219 8.71387 -10.0693 15.1816 -19.4355 15.3574l-0.391602 0.00292969h-266.612c-9.37891 -0.161133 -17.2275 -6.6377 -19.4727 -15.3604h-31.1123
c2.54297 25.6084 23.959 45.6758 50.1426 46.0742l0.794922 0.00683594h266.26z" />
    <glyph glyph-name="ext-mov" unicode="&#xf125;" 
d="M455.68 360.96c28.2773 0 51.2002 -22.9229 51.2002 -51.2002v-235.52c0 -28.2773 -22.9229 -51.2002 -51.2002 -51.2002h-56.3193l-61.4404 -61.4404h-215.05c-27.9922 0 -50.7314 22.4668 -51.1836 50.3525l-0.00683594 0.84668v10.2412h-15.3594
c-28.2773 0 -51.2002 22.9229 -51.2002 51.2002v235.52c0 28.2773 22.9229 51.2002 51.2002 51.2002h399.359zM355.915 23.04h-253.515v-10.5938c0.188477 -11.0312 9.08887 -19.9355 20.1133 -20.123l0.356445 -0.00292969h202.324zM455.68 330.24h-399.359
c-11.1934 0 -20.2891 -8.97949 -20.4805 -20.1279v-235.872c0 -11.1934 8.97949 -20.2891 20.127 -20.4775l0.353516 -0.00292969h399.359c11.1934 0 20.2891 8.97949 20.4805 20.1279v235.872c0 11.1934 -8.97949 20.2891 -20.127 20.4775zM267.039 255.488
c37.2324 0 64.3271 -26.542 64.3271 -63.5908c0 -37.0479 -27.0947 -63.5898 -64.3271 -63.5898c-37.0488 0 -64.1436 26.542 -64.1436 63.5898c0 37.0488 27.0947 63.5908 64.1436 63.5908zM94.0234 253.461l29.8604 -76.6777l29.8594 76.6777h36.8643v-122.942h-26.3574
v88.4736l-34.6523 -88.4736h-11.4277l-34.6523 88.4736v-88.4736h-26.1738v122.942h36.6797zM356.741 253.461l34.0986 -94.5566l33.915 94.5566h29.8604l-47.3701 -122.942h-32.8096l-47.5547 122.942h29.8604zM267.039 232.264
c-22.6719 0 -37.2334 -17.3262 -37.2334 -40.3662c0 -22.8555 14.5615 -40.3662 37.2334 -40.3662c22.6709 0 37.417 17.5107 37.417 40.3662c0 23.04 -14.7461 40.3662 -37.417 40.3662zM389.13 422.4c26.5479 0 48.3701 -20.208 50.9375 -46.0811h-31.1104
c-2.24219 8.71387 -10.0693 15.1816 -19.4355 15.3574l-0.391602 0.00292969h-266.612c-9.37891 -0.161133 -17.2275 -6.6377 -19.4727 -15.3604h-31.1123c2.54297 25.6084 23.959 45.6758 50.1426 46.0742l0.794922 0.00683594h266.26z" />
    <glyph glyph-name="ext-mp3" unicode="&#xf126;" 
d="M455.68 360.96c28.2773 0 51.2002 -22.9229 51.2002 -51.2002v-235.52c0 -28.2773 -22.9229 -51.2002 -51.2002 -51.2002h-56.3193l-61.4404 -61.4404h-215.05c-27.9922 0 -50.7314 22.4668 -51.1836 50.3525l-0.00683594 0.84668v10.2412h-15.3594
c-28.2773 0 -51.2002 22.9229 -51.2002 51.2002v235.52c0 28.2773 22.9229 51.2002 51.2002 51.2002h399.359zM355.915 23.04h-253.515v-10.5938c0.188477 -11.0312 9.08887 -19.9355 20.1133 -20.123l0.356445 -0.00292969h202.324zM455.68 330.24h-399.359
c-11.1934 0 -20.2891 -8.97949 -20.4805 -20.1279v-235.872c0 -11.1934 8.97949 -20.2891 20.127 -20.4775l0.353516 -0.00292969h399.359c11.1934 0 20.2891 8.97949 20.4805 20.1279v235.872c0 11.1934 -8.97949 20.2891 -20.127 20.4775zM396.356 262.656
c31.9482 0 51.6094 -14.3359 51.6094 -37.0693c0 -17.2031 -14.7451 -28.4668 -29.9004 -31.1289c13.9258 -1.43359 31.9482 -12.2881 31.9482 -32.7686c0 -23.5518 -21.0938 -40.1406 -53.8623 -40.1406c-24.9385 0 -43.4541 9.43359 -53.5586 21.5459l-0.303711 0.367188
l15.1553 19.0469c9.4209 -9.83008 24.3711 -15.5645 37.6836 -15.5645c16.5879 0 25.8047 7.16797 25.8047 17.6123c0 10.9492 -8.23047 16.0762 -26.875 16.1777l-7.47266 -0.0078125c-4.30859 -0.015625 -8.50684 -0.0595703 -9.96582 -0.183594l-0.128906 -0.0117188
v25.3955l0.520508 -0.0351562c2.16309 -0.121094 7.05273 -0.15625 11.4961 -0.166016l4.98242 -0.00390625c15.1553 0 25.1904 4.91504 25.1904 15.1553c0 10.8545 -11.0596 16.3838 -25.3955 16.3838c-13.0977 0 -24.8066 -4.95605 -34.3486 -13.8936l-0.466797 -0.442383
l-14.3369 18.0225c11.0596 12.4932 28.2627 21.709 52.2246 21.709zM103.219 260.608l33.1777 -85.1973l33.1777 85.1973h40.96v-136.602h-29.2861v98.3037l-38.5029 -98.3037h-12.6973l-38.502 98.3037v-98.3037h-29.082v136.602h40.7549zM294.639 260.608
c29.6963 0 45.875 -20.0703 45.875 -44.0322c0 -23.5195 -16.0576 -43.2246 -44.9941 -43.6162l-0.880859 -0.00683594h-34.8154v-48.9463h-29.082v136.602h63.8975zM290.748 235.622h-30.9248v-37.6826h30.9248c11.4688 0 20.0703 7.37207 20.0703 18.8418
c0 11.1426 -8.41797 18.6777 -19.7021 18.8389zM389.13 422.4c26.5479 0 48.3701 -20.208 50.9375 -46.0811h-31.1104c-2.24219 8.71387 -10.0693 15.1816 -19.4355 15.3574l-0.391602 0.00292969h-266.612c-9.37891 -0.161133 -17.2275 -6.6377 -19.4727 -15.3604h-31.1123
c2.54297 25.6084 23.959 45.6758 50.1426 46.0742l0.794922 0.00683594h266.26z" />
    <glyph glyph-name="ext-mp4" unicode="&#xf127;" 
d="M455.68 360.96c28.2773 0 51.2002 -22.9229 51.2002 -51.2002v-235.52c0 -28.2773 -22.9229 -51.2002 -51.2002 -51.2002h-56.3193l-61.4404 -61.4404h-215.05c-27.9922 0 -50.7314 22.4668 -51.1836 50.3525l-0.00683594 0.84668v10.2412h-15.3594
c-28.2773 0 -51.2002 22.9229 -51.2002 51.2002v235.52c0 28.2773 22.9229 51.2002 51.2002 51.2002h399.359zM355.915 23.04h-253.515v-10.5938c0.188477 -11.0312 9.08887 -19.9355 20.1133 -20.123l0.356445 -0.00292969h202.324zM455.68 330.24h-399.359
c-11.1934 0 -20.2891 -8.97949 -20.4805 -20.1279v-235.872c0 -11.1934 8.97949 -20.2891 20.127 -20.4775l0.353516 -0.00292969h399.359c11.1934 0 20.2891 8.97949 20.4805 20.1279v235.872c0 11.1934 -8.97949 20.2891 -20.127 20.4775zM100.147 260.608
l33.1777 -85.1973l33.1768 85.1973h40.96v-136.602h-29.2861v98.3037l-38.502 -98.3037h-12.6982l-38.502 98.3037v-98.3037h-29.082v136.602h40.7559zM291.567 260.608c29.6953 0 45.875 -20.0703 45.875 -44.0322c0 -23.5195 -16.0586 -43.2246 -44.9951 -43.6162
l-0.879883 -0.00683594h-34.8164v-48.9463h-29.082v136.602h63.8984zM434.654 260.608v-82.7393h17.6123v-25.6006h-17.6123v-28.2617h-29.082v28.2617h-65.3311v22.9375l54.2715 85.4023h40.1416zM405.572 234.803l-36.8643 -56.9336h36.8643v56.9336zM287.676 235.622
h-30.9248v-37.6826h30.9248c11.4688 0 20.0703 7.37207 20.0703 18.8418c0 11.1426 -8.41797 18.6777 -19.7012 18.8389zM389.13 422.4c26.5479 0 48.3701 -20.208 50.9375 -46.0811h-31.1104c-2.24219 8.71387 -10.0693 15.1816 -19.4355 15.3574l-0.391602 0.00292969
h-266.612c-9.37891 -0.161133 -17.2275 -6.6377 -19.4727 -15.3604h-31.1123c2.54297 25.6084 23.959 45.6758 50.1426 46.0742l0.794922 0.00683594h266.26z" />
    <glyph glyph-name="ext-pdf" unicode="&#xf128;" 
d="M455.68 360.96c28.2773 0 51.2002 -22.9229 51.2002 -51.2002v-235.52c0 -28.2773 -22.9229 -51.2002 -51.2002 -51.2002h-56.3193l-61.4404 -61.4404h-215.05c-27.9922 0 -50.7314 22.4668 -51.1836 50.3525l-0.00683594 0.84668v10.2412h-15.3594
c-28.2773 0 -51.2002 22.9229 -51.2002 51.2002v235.52c0 28.2773 22.9229 51.2002 51.2002 51.2002h399.359zM355.915 23.04h-253.515v-10.5938c0.188477 -11.0312 9.08887 -19.9355 20.1133 -20.123l0.356445 -0.00292969h202.324zM455.68 330.24h-399.359
c-11.1934 0 -20.2891 -8.97949 -20.4805 -20.1279v-235.872c0 -11.1934 8.97949 -20.2891 20.127 -20.4775l0.353516 -0.00292969h399.359c11.1934 0 20.2891 8.97949 20.4805 20.1279v235.872c0 11.1934 -8.97949 20.2891 -20.127 20.4775zM126.157 268.8
c33.4072 0 51.6094 -22.5791 51.6094 -49.5361c0 -26.459 -18.0654 -48.6279 -50.6191 -49.0684l-0.990234 -0.00683594h-39.168v-55.0654h-32.7168v153.677h71.8848zM250.957 268.8c48.1533 0 81.5615 -30.6426 81.5615 -76.9531
c0 -45.8477 -32.7432 -76.1133 -80.1221 -76.7148l-1.43945 -0.00878906h-60.5957v153.677h60.5957zM456.857 268.8v-28.1084h-76.0322v-33.4082h74.4199v-28.1084h-74.4199v-64.0518h-32.7168v153.677h108.749zM250.957 240h-27.8789v-96.0771h27.8789
c30.4121 0 48.1533 21.8887 48.1533 47.9238c0 26.915 -16.2588 47.7334 -47.2109 48.1475zM121.779 240.691h-34.79v-42.3936h34.79c12.9023 0 22.5791 8.29395 22.5791 21.1963c0 12.5459 -9.48438 21.0264 -22.1934 21.1943zM389.13 422.4
c26.5479 0 48.3701 -20.208 50.9375 -46.0811h-31.1104c-2.24219 8.71387 -10.0693 15.1816 -19.4355 15.3574l-0.391602 0.00292969h-266.612c-9.37891 -0.161133 -17.2275 -6.6377 -19.4727 -15.3604h-31.1123c2.54297 25.6084 23.959 45.6758 50.1426 46.0742
l0.794922 0.00683594h266.26z" />
    </font>
</defs>
</svg>
